<?xml version="1.0" standalone="no"?>
<!DOCTYPE svg PUBLIC "-//W3C//DTD SVG 20010904//EN"
 "http://www.w3.org/TR/2001/REC-SVG-20010904/DTD/svg10.dtd">
<svg version="1.0" xmlns="http://www.w3.org/2000/svg"
 width="860.000000pt" height="774.000000pt" viewBox="0 0 860.000000 774.000000"
 preserveAspectRatio="xMidYMid meet">

<g transform="translate(0.000000,774.000000) scale(0.100000,-0.100000)"
fill="#000000" stroke="none">
<path d="M2835 7200 c-3 -6 -3 -14 0 -20 3 -5 2 -10 -4 -10 -5 0 -8 -7 -7 -16
3 -18 90 -56 119 -52 15 3 13 8 -14 41 -35 42 -84 72 -94 57z"/>
<path d="M3884 7154 c9 -8 16 -20 16 -26 0 -6 3 -9 6 -6 8 9 -14 48 -27 48 -6
0 -3 -7 5 -16z"/>
<path d="M3919 7159 c-10 -6 -3 -9 21 -9 l35 -1 -27 -15 c-30 -15 -38 -30 -13
-20 8 3 15 1 15 -5 0 -6 5 -7 11 -3 8 4 7 9 -2 15 -11 7 -10 9 4 9 20 0 23 15
5 27 -19 11 -34 12 -49 2z"/>
<path d="M2509 7145 c-4 -3 -24 -8 -45 -11 -75 -9 -52 -19 29 -12 45 3 88 7
96 7 25 2 5 11 -35 17 -22 3 -42 3 -45 -1z"/>
<path d="M4277 7135 c-4 -8 -3 -14 1 -14 4 1 9 0 12 -1 25 -9 41 -7 36 7 -3 8
-6 17 -6 19 0 2 -4 4 -10 4 -5 0 -7 -8 -4 -17 5 -17 5 -17 -9 0 -13 15 -15 15
-20 2z"/>
<path d="M2989 7106 c23 -36 27 -51 11 -41 -6 3 -7 -1 -4 -9 3 -9 17 -16 29
-16 l23 0 -24 50 c-14 29 -31 50 -40 50 -13 0 -12 -5 5 -34z"/>
<path d="M4053 7130 c9 -6 15 -15 12 -21 -4 -5 -2 -9 3 -9 6 0 12 7 16 15 3 8
1 15 -3 15 -5 0 -18 3 -28 6 -17 5 -17 5 0 -6z"/>
<path d="M4212 7132 c14 -6 15 -10 3 -26 -8 -10 -19 -15 -26 -10 -8 4 -10 3
-5 -4 10 -16 24 -15 43 3 18 19 10 45 -14 44 -16 0 -16 -1 -1 -7z"/>
<path d="M4150 7117 c-19 -15 -14 -47 6 -47 11 0 13 6 9 20 -5 14 -2 20 9 20
9 0 16 5 16 10 0 14 -22 12 -40 -3z"/>
<path d="M3043 7096 c7 -14 13 -23 15 -21 7 6 -9 45 -18 45 -4 0 -3 -11 3 -24z"/>
<path d="M3474 7100 c5 -25 19 -55 29 -61 5 -4 0 -10 -12 -14 -11 -3 -21 -10
-21 -15 0 -5 -7 -7 -15 -4 -9 4 -15 0 -15 -7 0 -8 -9 -3 -20 11 -11 14 -20 20
-20 13 0 -7 -7 -10 -15 -7 -12 5 -14 -1 -11 -25 3 -26 1 -29 -11 -19 -12 10
-12 7 -2 -16 9 -18 15 -23 20 -14 5 8 13 5 28 -13 17 -20 17 -25 4 -27 -9 -2
-20 2 -24 10 -8 11 -11 11 -18 -1 -8 -12 -15 -9 -41 13 -40 33 -50 26 -26 -19
14 -25 28 -36 50 -40 17 -4 38 -7 46 -9 31 -6 76 -28 99 -49 13 -12 20 -15 16
-7 -5 10 -1 8 13 -4 22 -19 26 -17 23 19 -2 16 2 14 18 -9 14 -21 18 -39 14
-60 -9 -49 -22 -54 -50 -21 -23 27 -25 28 -20 7 4 -19 3 -21 -8 -12 -8 7 -17
20 -20 31 -5 15 -12 18 -33 13 -29 -7 -54 -24 -34 -24 6 0 9 -7 5 -16 -5 -14
-9 -12 -20 10 -18 34 -25 33 -18 -1 5 -26 5 -26 -4 -5 -12 27 -47 32 -36 5 9
-23 17 -62 9 -44 -15 31 -54 83 -54 70 0 -8 -6 -6 -16 7 -14 18 -15 18 -9 -6
4 -14 15 -48 26 -77 14 -40 15 -51 5 -47 -8 3 -17 22 -21 42 -8 44 -38 103
-61 123 -16 13 -16 12 0 -19 10 -19 15 -36 13 -39 -3 -2 -8 4 -11 14 -3 10
-15 24 -27 31 l-22 14 22 -36 c13 -20 21 -40 19 -46 -2 -5 -21 22 -42 60 -22
39 -44 70 -49 70 -5 0 -7 -7 -4 -14 4 -10 1 -13 -8 -9 -8 3 -12 9 -9 14 3 5 0
9 -6 9 -19 0 -5 -24 21 -37 l24 -13 -23 0 c-21 0 -22 -1 -8 -16 9 -8 16 -19
16 -23 0 -4 10 -13 23 -19 19 -9 16 -10 -18 -6 -39 4 -58 19 -51 40 3 7 -6 22
-18 33 l-23 22 5 -28 5 -28 -23 23 c-15 16 -30 22 -45 19 -17 -3 -25 1 -28 15
-3 10 -10 18 -16 18 -10 0 13 -46 29 -60 4 -3 9 -13 13 -22 3 -10 12 -18 19
-18 9 0 9 3 0 12 -18 18 -15 33 3 18 9 -7 14 -18 12 -24 -3 -6 2 -18 10 -28 9
-10 11 -18 4 -22 -5 -4 -12 3 -16 13 -3 11 -12 18 -19 15 -17 -7 -70 22 -56
31 7 5 3 17 -14 40 -14 18 -22 35 -19 39 4 3 2 6 -4 6 -6 0 -16 -7 -23 -15
-17 -21 -28 -19 -33 8 -4 20 -4 20 -6 1 -1 -17 -6 -20 -32 -16 -17 2 -33 11
-36 18 -3 8 -12 14 -20 14 -8 0 -11 5 -8 10 3 6 0 11 -7 11 -94 9 -102 4 -78
-42 10 -17 8 -18 -17 -8 -26 10 -26 9 -10 -9 18 -19 23 -37 9 -28 -4 2 -14 1
-22 -4 -11 -7 -12 -11 0 -24 7 -9 10 -19 7 -22 -3 -3 -13 6 -23 21 -9 14 -23
24 -30 21 -8 -3 -14 -1 -14 4 0 6 -5 10 -11 10 -6 0 -8 -7 -5 -17 4 -9 1 -20
-6 -25 -10 -6 -10 -8 1 -8 8 0 30 -16 49 -36 28 -29 32 -38 21 -46 -10 -7 -8
-8 9 -3 13 4 22 2 22 -4 0 -6 -5 -11 -10 -11 -13 0 -9 -32 5 -42 6 -5 4 -12
-5 -18 -8 -5 -10 -10 -5 -11 6 0 1 -4 -10 -8 -19 -8 -18 -10 13 -39 18 -17 43
-32 54 -34 14 -2 24 -12 28 -28 6 -23 6 -24 14 -5 7 20 8 20 26 -2 10 -13 22
-23 27 -23 5 0 22 -26 37 -57 16 -32 30 -60 32 -62 2 -2 11 4 20 14 19 19 36
4 26 -24 -3 -9 -2 -13 3 -9 4 4 17 2 29 -4 20 -10 20 -10 -1 11 -23 22 -27 33
-23 60 1 8 -4 18 -12 23 -8 5 -4 7 14 4 36 -6 48 -14 48 -32 0 -8 5 -12 10 -9
7 4 7 12 0 25 -7 13 -6 20 3 23 9 3 9 8 -2 21 -8 9 -11 20 -7 23 4 4 11 1 16
-7 7 -10 10 -11 10 -2 0 6 9 12 20 12 13 0 20 7 20 20 0 25 17 26 23 3 3 -13
5 -12 6 5 1 14 5 20 12 17 6 -4 8 -9 5 -12 -2 -3 2 -22 9 -43 7 -21 16 -63 20
-94 8 -61 16 -74 34 -52 9 11 8 17 -3 29 -16 15 -32 80 -27 110 1 10 -3 25
-11 34 -12 15 -11 15 9 4 18 -9 22 -19 20 -43 -1 -17 3 -33 9 -35 14 -5 11 52
-4 90 -20 49 -13 54 9 7 27 -59 59 -162 54 -171 -5 -7 16 -94 55 -224 23 -81
24 -89 8 -79 -8 5 -9 -2 -5 -23 17 -86 18 -128 3 -148 -13 -19 -14 -16 -13 35
1 49 -37 180 -83 285 -9 20 -9 20 -9 -1 -1 -11 15 -65 34 -120 19 -54 30 -100
25 -102 -13 -5 -13 -32 0 -32 11 0 14 -59 3 -86 -5 -14 -9 -11 -19 17 l-12 34
-1 -36 c-1 -22 -8 -43 -21 -54 -11 -10 -20 -27 -20 -37 0 -11 -5 -16 -10 -13
-6 4 -8 11 -4 16 3 5 1 15 -4 22 -20 24 -52 88 -52 102 0 8 -4 15 -8 15 -4 0
-19 21 -32 48 -17 34 -25 42 -28 29 -2 -10 8 -35 21 -55 14 -20 37 -63 51 -94
22 -52 23 -58 7 -58 -11 0 -25 17 -39 48 l-22 47 1 -35 c3 -64 -1 -100 -11
-100 -5 0 -10 10 -10 22 0 21 0 21 -14 3 -9 -12 -11 -26 -6 -35 5 -10 1 -23
-11 -39 -14 -17 -19 -19 -19 -8 0 9 4 19 10 22 13 8 1 113 -17 148 -20 40 -25
29 -8 -18 17 -47 19 -85 5 -85 -5 0 -10 4 -10 9 0 5 -10 13 -22 17 -21 6 -21
7 -3 20 17 13 17 14 -6 23 -13 5 -19 10 -14 10 6 1 -3 12 -20 26 -16 14 -22
22 -12 19 10 -4 17 -1 17 6 0 9 4 9 17 -1 12 -10 11 -5 -5 17 -12 17 -44 49
-72 70 -59 45 -70 71 -18 43 16 -8 19 -8 16 2 -2 7 -19 20 -37 30 -41 22 -72
49 -66 59 6 10 -24 35 -32 27 -3 -4 0 -13 7 -22 7 -8 8 -15 3 -15 -5 0 -16 9
-26 20 -9 11 -23 20 -31 20 -8 0 -16 6 -19 13 -2 7 -8 8 -13 3 -5 -5 -4 -11 4
-13 6 -3 12 -14 12 -26 0 -20 -2 -19 -19 7 -19 28 -19 29 2 50 31 29 31 49 2
76 -17 16 -25 34 -25 59 -1 34 -2 35 -15 17 -8 -11 -18 -17 -22 -13 -3 4 1 15
10 24 14 17 13 18 -16 20 -29 2 -76 33 -49 33 7 0 12 5 12 12 0 9 -3 9 -12 0
-17 -17 -33 -15 -19 2 9 11 8 15 -4 20 -9 3 -15 1 -14 -7 3 -25 -1 -38 -12
-32 -6 4 -8 13 -5 21 3 9 0 11 -11 7 -13 -5 -13 -3 -5 14 6 11 8 23 4 27 -3 4
-1 11 7 15 18 11 22 71 4 64 -7 -3 -21 -2 -30 1 -14 6 -15 9 -4 16 12 7 12 13
1 39 -7 17 -17 31 -22 31 -6 0 -8 7 -4 15 4 10 -1 15 -16 15 -17 0 -19 3 -10
12 8 8 6 16 -10 30 -12 10 -16 18 -10 18 6 0 14 -5 17 -10 4 -6 10 -8 15 -5
10 6 2 37 -13 46 -5 3 5 9 22 12 22 5 29 11 25 22 -3 8 -11 15 -17 15 -5 0 0
9 13 20 19 17 20 20 6 20 -9 0 -15 4 -12 9 3 5 -1 12 -10 15 -8 3 -12 11 -9
17 5 8 10 8 18 0 6 -6 15 -11 21 -11 5 0 2 6 -8 13 -9 7 -16 17 -14 23 2 5 -8
31 -21 57 -19 36 -30 47 -48 47 -15 0 -22 -4 -17 -11 4 -8 1 -8 -12 -1 -11 5
-26 12 -34 15 -10 5 -9 6 5 5 11 0 31 4 45 10 23 11 22 11 -12 7 -30 -4 -38
-2 -38 11 0 16 -11 16 -54 -2 -12 -4 -17 -4 -13 3 12 20 -107 1 -145 -23 -21
-13 -41 -24 -45 -24 -13 0 -115 -115 -134 -152 -10 -20 -23 -58 -29 -84 -8
-32 -40 -91 -102 -183 -50 -74 -129 -200 -174 -279 -87 -151 -105 -211 -89
-285 3 -18 11 -75 16 -127 5 -52 12 -122 16 -154 7 -70 -9 -171 -43 -278 -13
-43 -24 -95 -24 -117 0 -21 -13 -81 -30 -132 -21 -67 -34 -139 -46 -249 -15
-153 -32 -231 -80 -363 -21 -60 -23 -74 -13 -112 11 -42 10 -47 -22 -97 -64
-99 -192 -253 -306 -365 -81 -81 -108 -113 -93 -113 23 0 35 -37 26 -78 -3
-15 -8 -36 -10 -47 -7 -37 -18 -54 -39 -61 -12 -3 -42 -18 -67 -33 -25 -15
-54 -30 -65 -34 -47 -14 -149 -56 -138 -56 25 -2 177 60 267 107 132 69 283
186 417 324 63 65 118 116 121 113 3 -3 3 -27 0 -53 -3 -35 0 -51 11 -61 12
-9 14 -24 10 -62 -4 -32 -1 -58 7 -74 8 -15 11 -42 7 -73 -4 -36 -2 -55 10
-72 11 -16 14 -34 9 -70 -5 -36 -3 -52 8 -63 15 -14 15 -24 1 -78 -4 -18 -1
-31 11 -43 14 -15 15 -23 6 -54 -9 -27 -8 -39 1 -50 6 -8 12 -44 13 -81 1 -36
5 -113 9 -171 4 -58 7 -124 6 -147 0 -23 3 -45 9 -48 7 -4 6 -13 -1 -27 -6
-12 -8 -35 -4 -57 4 -20 8 -92 10 -161 1 -69 3 -125 4 -125 1 0 4 -76 6 -168
2 -92 6 -171 9 -176 3 -4 8 -70 11 -147 7 -153 7 -151 30 -374 35 -331 83
-488 185 -603 28 -30 50 -59 50 -64 0 -5 -14 -22 -31 -39 -62 -59 -89 -112
-89 -175 0 -32 4 -60 9 -64 11 -6 275 -23 471 -29 74 -3 124 -3 110 0 -59 11
-71 15 -66 23 3 4 -6 13 -20 19 -15 8 -27 23 -31 42 -5 27 -7 28 -18 14 -8
-12 -14 -14 -19 -6 -4 7 -5 16 -2 20 2 4 -5 9 -17 9 -23 2 -47 28 -47 50 0 23
32 11 43 -17 4 -12 6 -12 6 2 1 13 8 15 34 11 17 -3 34 -9 35 -14 2 -5 8 -9
13 -9 6 0 7 5 4 10 -3 6 4 10 17 10 13 1 38 9 57 19 33 18 33 18 10 25 l-24 6
24 14 24 13 -26 7 c-20 5 -33 21 -54 68 -17 38 -29 56 -31 45 -2 -9 -10 -17
-18 -17 -8 0 -14 -6 -14 -12 0 -9 -4 -8 -10 2 -8 12 -10 10 -10 -10 -1 -22 -2
-23 -11 -7 -6 10 -8 25 -5 33 4 9 -1 14 -15 14 -17 0 -18 -3 -9 -21 6 -11 9
-25 6 -32 -2 -7 -8 -2 -12 11 -5 18 -9 20 -15 10 -7 -10 -9 -9 -9 4 0 11 -5
15 -15 12 -8 -4 -15 -1 -15 4 0 6 -9 14 -20 17 -11 4 -18 11 -15 16 4 5 0 12
-9 15 -9 3 -12 12 -9 21 4 11 2 14 -5 9 -7 -4 -16 2 -22 16 -5 13 -18 34 -27
48 -10 13 -12 21 -5 16 7 -4 12 -2 12 8 0 8 8 17 18 19 16 4 16 5 0 6 -10 0
-18 2 -18 4 0 1 4 17 9 34 6 20 6 35 0 38 -5 4 -9 1 -9 -5 0 -6 -5 -8 -12 -4
-8 5 -5 11 7 20 18 13 17 14 -3 33 -12 10 -22 28 -22 39 0 11 -6 23 -12 25
-10 4 -10 6 -1 6 7 1 10 8 7 16 -4 9 0 15 7 16 8 0 5 4 -6 9 -20 9 -20 9 1 9
11 1 26 -5 33 -11 10 -11 11 -10 6 5 -4 9 -14 17 -23 17 -8 0 -13 3 -10 6 4 3
-3 15 -14 26 -11 11 -16 23 -12 26 3 4 9 1 11 -5 6 -17 24 -17 20 -1 -1 7 8
14 21 16 28 4 29 23 1 19 -12 -1 -24 5 -27 13 -3 8 -2 12 2 8 4 -3 21 -2 36 2
16 5 29 5 29 2 -1 -4 0 -9 1 -12 1 -3 4 -17 6 -32 4 -24 1 -28 -20 -28 -14 0
-28 -4 -31 -10 -3 -5 1 -10 9 -10 9 0 16 -5 16 -11 0 -5 5 -7 10 -4 6 4 8 11
5 16 -4 5 -1 9 4 9 7 0 10 -22 8 -56 l-2 -56 -32 4 c-23 3 -33 0 -33 -10 0
-10 8 -12 32 -7 25 6 30 5 25 -8 -3 -9 1 -21 9 -28 8 -7 12 -20 8 -31 -5 -17
2 -40 39 -118 30 -62 81 -93 160 -96 32 -1 61 -5 64 -8 12 -11 21 -6 19 12 -1
13 6 17 29 16 20 0 38 8 53 24 24 26 21 37 -13 45 -20 5 -19 5 1 6 11 0 29 -6
40 -14 11 -8 14 -15 6 -15 -10 0 -10 -4 0 -19 9 -15 15 -17 25 -9 7 6 13 17
13 24 0 8 10 14 22 14 12 0 18 -3 15 -7 -4 -3 2 -13 14 -21 13 -9 19 -21 16
-33 -3 -11 -1 -17 4 -13 13 8 11 38 -3 52 -8 8 -8 12 -1 12 14 0 35 -59 26
-72 -3 -6 0 -8 8 -6 8 3 13 11 11 17 -1 8 8 6 28 -4 30 -16 37 -11 21 14 -6 9
-5 24 0 39 7 19 6 29 -7 44 -14 14 -15 21 -6 30 9 9 12 8 12 -6 0 -9 4 -15 10
-11 6 4 6 15 0 30 -6 17 -6 25 1 25 6 0 8 14 5 36 -4 25 -3 33 5 28 8 -5 10 4
7 29 -2 20 -1 34 3 31 9 -5 21 90 13 110 -3 9 -2 16 4 16 6 0 10 27 9 67 0 36
-3 61 -5 55 -2 -7 -10 -12 -18 -12 -12 0 -12 4 -2 20 11 17 11 22 0 29 -8 4
-10 15 -6 26 6 15 4 17 -12 12 -18 -7 -18 -7 0 7 10 8 15 19 11 25 -3 6 -1 11
4 11 6 0 11 -4 11 -10 0 -5 7 -10 15 -10 22 0 9 68 -19 98 -17 19 -17 22 -3
16 18 -7 24 10 7 21 -6 4 -8 11 -5 16 4 5 -2 12 -12 16 -43 16 -46 60 -3 61
32 1 37 -7 18 -26 -9 -9 -8 -12 6 -12 9 0 26 5 37 10 15 9 19 7 19 -5 0 -9 -4
-13 -10 -10 -5 3 -10 -2 -10 -12 0 -14 -2 -15 -9 -5 -7 11 -9 11 -14 -2 -7
-16 8 -30 33 -31 16 0 38 51 75 180 22 77 105 311 158 445 14 36 31 85 37 110
15 55 60 147 93 186 38 46 124 195 140 244 9 25 20 80 26 121 6 41 17 91 25
110 8 20 20 58 27 85 31 128 149 308 230 350 26 13 32 13 68 -5 23 -12 43 -32
51 -50 7 -17 13 -31 15 -31 1 0 16 7 34 16 29 15 34 14 76 -6 80 -39 100 -92
135 -365 6 -49 19 -137 30 -195 10 -58 23 -132 28 -165 5 -33 36 -206 67 -385
l58 -325 2 -220 c1 -215 2 -223 32 -325 97 -332 110 -404 95 -526 -13 -97 -47
-164 -111 -221 -32 -29 -32 -39 2 -34 4 0 7 -4 7 -9 0 -6 16 -10 35 -10 38 0
40 -3 50 -63 5 -29 3 -37 -9 -37 -9 0 -21 10 -27 22 l-12 23 23 -20 23 -20
-12 23 c-13 24 -26 28 -36 12 -10 -16 -45 -12 -45 5 0 8 -5 15 -10 15 -7 0 -7
6 -1 19 13 24 -12 37 -29 15 -7 -8 -21 -14 -31 -14 -23 0 -35 -22 -44 -82 -9
-60 5 -68 117 -68 46 0 126 -7 178 -14 59 -9 190 -15 350 -17 211 -1 267 1
327 15 67 16 93 30 80 42 -3 3 -31 6 -63 6 -52 1 -61 5 -90 35 -31 31 -50 38
-102 33 -28 -2 -60 -31 -54 -49 3 -9 -4 -7 -22 4 -17 11 -26 13 -26 6 0 -7 -4
-10 -10 -6 -5 3 -7 12 -3 20 3 9 -1 15 -11 15 -9 0 -16 6 -16 13 -1 6 -7 1
-14 -12 l-13 -24 -19 32 c-20 33 -37 42 -27 13 4 -11 -5 -7 -28 13 -47 41 -78
58 -119 62 -41 5 -42 6 -34 27 5 13 14 15 47 9 33 -5 39 -3 32 8 -5 8 3 4 16
-7 28 -25 69 -38 66 -21 -1 6 11 12 27 12 23 1 31 -5 42 -30 13 -28 14 -27 9
33 -3 36 -1 62 4 62 5 0 12 -8 14 -17 3 -13 5 -12 6 5 0 13 5 20 11 17 6 -3 7
1 4 9 -4 11 0 16 15 16 12 0 21 -5 21 -11 0 -5 -4 -7 -10 -4 -5 3 -10 2 -10
-3 0 -20 14 -20 40 -2 16 11 34 20 40 20 8 0 10 8 7 21 -3 12 0 22 9 26 10 4
11 10 3 24 -12 24 1 25 44 3 l32 -17 -19 22 c-15 17 -16 20 -4 16 9 -4 19 -1
24 6 4 8 3 10 -4 5 -7 -4 -12 -1 -12 8 0 8 6 17 13 19 8 4 8 8 2 14 -13 11
-17 53 -5 53 6 0 10 5 10 10 0 6 -7 10 -15 10 -8 0 -15 5 -15 10 0 6 4 10 10
10 11 0 2 59 -11 76 -5 6 -5 15 0 20 5 5 5 33 -1 64 -9 58 -11 143 -2 171 2 9
-1 23 -9 31 -7 7 -12 19 -9 27 3 8 1 11 -4 8 -5 -3 -9 20 -9 51 0 32 -8 109
-18 172 -17 113 -31 354 -30 540 0 174 10 261 37 325 13 33 30 101 36 150 28
222 29 224 85 225 17 0 48 5 70 10 31 7 58 5 115 -10 66 -17 78 -24 114 -67
22 -26 61 -68 87 -93 32 -30 59 -70 81 -120 19 -41 46 -93 60 -116 26 -40 88
-211 88 -240 0 -8 8 -27 17 -41 29 -44 31 -365 4 -558 -11 -82 -27 -213 -36
-290 -19 -173 -33 -253 -52 -283 -8 -13 -23 -47 -32 -75 -26 -74 -47 -105
-152 -223 -61 -69 -108 -133 -134 -184 -22 -42 -46 -85 -53 -93 -12 -14 -9
-16 20 -21 138 -21 858 -25 932 -5 79 21 84 45 9 47 -40 2 -52 7 -73 32 -21
26 -32 30 -72 30 -36 0 -51 -5 -65 -23 -20 -24 -76 -27 -67 -3 3 8 -4 16 -15
19 -13 3 -22 -1 -26 -12 -5 -14 -9 -12 -24 8 -10 13 -23 21 -30 17 -6 -4 -14
0 -17 8 -8 21 -63 52 -107 60 -27 5 -35 11 -30 22 4 12 15 14 46 9 27 -5 37
-4 33 3 -4 6 2 16 13 22 12 6 18 16 14 25 -4 13 -1 14 22 5 14 -5 50 -10 78
-11 38 0 47 -3 32 -9 -17 -7 -16 -9 11 -9 16 -1 36 -7 43 -14 11 -10 12 -8 2
9 -9 19 -7 23 11 27 12 3 36 0 55 -8 18 -8 40 -12 48 -9 9 4 15 0 15 -9 0 -9
10 -14 25 -14 14 0 22 4 19 9 -4 6 1 8 12 5 11 -3 35 -9 54 -12 19 -4 41 -12
49 -19 12 -9 13 -8 8 7 -4 10 -7 20 -7 23 0 2 -7 0 -17 -3 -10 -4 -14 -2 -9 5
3 6 -3 13 -14 17 -11 3 -20 11 -20 16 0 5 -21 19 -47 32 -38 18 -47 27 -47 47
1 32 17 29 126 -27 24 -12 27 -12 33 8 4 11 5 23 2 26 -3 2 1 23 9 46 9 25 14
68 12 109 -3 60 -5 68 -23 68 -17 0 -18 -2 -5 -11 13 -9 13 -10 0 -6 -8 2 -15
10 -15 18 0 8 -4 17 -10 21 -18 13 2 19 29 9 31 -12 36 3 7 21 -21 13 -17 38
6 38 11 0 13 11 9 53 -23 218 -27 305 -21 402 3 61 8 178 10 260 2 107 7 163
19 194 9 24 16 74 16 111 0 69 38 238 66 292 8 15 39 44 70 64 39 26 62 50 77
81 11 23 26 43 32 43 26 0 77 -65 120 -150 70 -142 133 -219 238 -289 61 -41
94 -92 103 -158 4 -29 9 -53 13 -53 3 0 6 -44 5 -98 0 -53 2 -117 6 -142 l6
-45 13 38 c10 30 16 36 26 27 18 -15 22 -6 30 64 l8 60 48 -95 c69 -135 108
-241 193 -519 41 -135 89 -285 106 -335 29 -87 30 -95 28 -245 -3 -175 5 -208
56 -221 33 -9 421 5 447 16 20 8 29 47 17 69 -7 12 -5 14 7 10 9 -4 17 0 20
10 3 9 8 24 12 34 3 9 5 23 4 30 -1 8 7 16 18 19 17 4 18 9 9 33 -5 16 -17 35
-25 42 -14 11 -14 9 0 -19 22 -41 21 -46 -2 -26 -11 9 -18 20 -16 24 3 4 -2
12 -10 19 -8 7 -15 19 -15 27 0 19 -32 73 -43 73 -13 0 -40 30 -34 37 10 9 59
-27 109 -81 32 -34 48 -45 48 -34 0 9 -11 29 -25 44 -13 14 -22 31 -18 37 6
10 26 -9 70 -68 l22 -30 -22 55 c-29 71 -36 82 -49 74 -6 -4 -8 -3 -5 3 4 6 0
19 -8 29 -15 18 -15 18 -9 -1 4 -13 -3 -9 -21 13 -15 18 -45 44 -66 58 -22 13
-39 32 -39 42 1 15 2 15 15 -2 8 -11 17 -17 21 -14 3 4 22 -11 41 -33 20 -22
38 -37 41 -34 3 3 -3 14 -13 25 -10 11 -14 20 -8 20 14 0 52 -47 45 -56 -4 -4
-1 -4 6 0 7 4 12 2 12 -5 0 -7 3 -10 6 -7 9 10 -63 111 -88 125 -13 7 -17 12
-10 13 18 0 15 21 -5 36 -10 7 -15 16 -11 20 4 4 14 1 23 -6 9 -7 18 -10 22
-7 3 4 -2 9 -11 13 -9 3 -16 12 -16 20 0 8 -6 14 -12 14 -10 0 -9 3 1 9 23 15
-5 54 -32 45 -19 -6 -20 -5 -8 10 9 11 12 32 8 68 -9 81 -43 215 -61 243 -9
13 -16 31 -16 39 0 8 -9 21 -20 29 -11 8 -17 16 -14 19 3 4 -3 23 -14 45 -32
62 -108 253 -127 318 -10 33 -18 80 -19 106 -1 28 -12 62 -28 90 -18 30 -24
53 -21 72 5 24 -13 122 -37 199 -4 14 -4 46 1 70 8 45 3 642 -7 713 -3 22 -13
55 -22 74 -13 25 -14 35 -5 38 8 3 10 15 6 34 -3 16 -2 29 3 29 5 0 10 59 12
130 2 104 -1 130 -11 130 -8 0 -22 10 -33 22 -19 21 -19 21 1 16 50 -14 50
-13 47 11 -1 13 -10 29 -18 36 -14 10 -14 15 -4 35 10 18 9 24 -1 31 -11 7 -8
14 14 30 17 13 27 30 27 46 0 21 -2 24 -15 13 -21 -18 -19 2 5 46 15 25 18 40
11 48 -7 9 -6 19 5 34 11 16 14 39 11 84 -3 43 0 70 9 84 12 17 12 39 4 117
-5 53 -9 140 -9 194 1 54 -2 114 -6 133 -7 38 -89 260 -110 300 -7 14 -35 69
-61 123 -27 53 -51 97 -55 97 -6 0 -20 29 -24 50 -1 3 -15 32 -31 65 -17 33
-46 98 -64 145 -19 47 -37 86 -41 88 -4 2 -6 9 -3 16 3 7 -9 27 -25 44 -17 17
-31 34 -31 39 0 11 -72 85 -77 79 -8 -8 17 -45 38 -56 11 -6 17 -16 13 -21 -3
-6 4 -17 16 -26 12 -9 19 -21 16 -30 -3 -8 5 -29 19 -47 14 -18 22 -36 18 -39
-12 -12 -23 -7 -24 11 0 14 -2 14 -9 -3 -13 -29 -12 -35 5 -29 10 4 15 0 13
-12 -2 -34 2 -55 10 -50 5 3 7 -5 6 -17 -1 -12 -3 -25 -3 -29 -1 -5 -9 -8 -18
-8 -16 -1 -16 -2 2 -17 18 -14 18 -15 2 -9 -10 3 -23 6 -29 6 -6 0 -8 6 -5 14
3 8 -3 22 -14 32 -16 15 -19 15 -19 1 0 -8 6 -18 13 -20 9 -4 9 -6 0 -6 -17
-1 -45 41 -32 49 6 4 0 19 -16 38 -27 32 -45 41 -45 22 0 -5 7 -10 16 -10 9 0
12 -5 8 -12 -4 -7 -3 -8 4 -4 8 5 12 -1 12 -16 l0 -22 -16 22 c-17 25 -44 29
-44 7 0 -8 -5 -15 -11 -15 -5 0 -7 5 -3 12 11 18 14 119 3 113 -5 -4 -9 -2 -9
4 0 17 19 22 40 11 11 -6 20 -17 20 -25 0 -8 5 -15 10 -15 6 0 10 5 10 11 0 5
5 7 10 4 6 -4 8 -10 5 -14 -2 -5 4 -16 14 -25 11 -10 16 -25 14 -40 -3 -15 1
-25 11 -29 16 -6 33 10 22 20 -3 4 -6 1 -6 -6 0 -7 -4 -9 -10 -6 -5 3 -7 19
-3 35 4 23 2 30 -11 30 -9 0 -16 8 -16 19 0 11 -7 26 -15 34 -16 17 -10 28 11
20 12 -4 13 -1 3 21 -7 14 -16 26 -21 26 -4 0 -8 11 -8 24 0 32 -20 45 -21 14
-1 -18 -2 -19 -6 -5 -3 10 1 25 9 34 9 12 9 15 1 9 -8 -4 -13 -1 -13 9 0 8 -7
18 -15 21 -8 4 -15 10 -15 16 0 14 -27 38 -34 31 -3 -4 -17 0 -31 7 -19 10
-22 16 -13 22 8 5 -2 8 -25 8 -20 0 -46 -6 -57 -12 -22 -14 -34 -6 -45 31 -5
18 -4 22 5 16 9 -5 11 -4 6 4 -10 15 -29 3 -22 -15 3 -7 1 -16 -4 -19 -6 -4
-10 -2 -10 3 0 6 -7 13 -16 16 -13 5 -15 1 -12 -17 4 -21 -16 -47 -37 -47 -13
0 -3 19 12 22 11 2 -2 13 -35 30 -33 17 -52 23 -52 15 0 -7 -6 -4 -14 6 -14
18 -32 24 -21 7 3 -6 -5 -10 -19 -10 -13 0 -26 5 -28 11 -2 7 -10 4 -18 -7 -9
-11 -10 -15 -2 -10 8 5 12 0 12 -13 0 -22 -14 -28 -25 -11 -3 6 -17 7 -29 4
-23 -6 -56 17 -56 38 0 6 -3 8 -6 5 -7 -6 -38 24 -53 52 -6 10 -13 11 -29 2
-11 -6 -29 -11 -39 -11 -15 0 -16 2 -3 10 13 8 13 10 -1 10 -9 0 -22 7 -29 15
-7 9 -19 14 -26 11 -7 -3 -15 1 -18 9 -3 8 0 16 7 18 7 2 9 7 6 11 -4 4 -14 0
-22 -9 -12 -11 -22 -13 -41 -5 -20 7 -24 6 -19 -5 6 -18 -8 -20 -25 -3 -9 9
-12 9 -12 0 0 -7 -7 -12 -15 -12 -12 0 -13 -4 -3 -25 9 -19 9 -28 0 -37 -8 -8
-13 -7 -18 8 -4 10 -16 27 -28 36 -22 18 -66 24 -66 9 0 -4 11 -6 24 -4 18 4
26 0 31 -16 3 -12 11 -18 17 -15 7 5 8 2 3 -5 -4 -7 -20 -11 -36 -9 -24 4 -26
2 -18 -13 5 -9 14 -20 21 -23 7 -3 3 -3 -9 0 -13 3 -23 1 -23 -5 0 -6 -9 -11
-20 -11 -11 0 -20 5 -20 10 0 6 -6 10 -14 10 -7 0 -19 7 -26 15 -16 19 -1 19
24 0 22 -17 56 -20 56 -6 0 6 -4 13 -10 16 -5 3 -10 2 -10 -3 0 -6 -9 -8 -20
-5 -11 3 -20 9 -20 14 0 14 -27 10 -43 -6 -13 -12 -17 -12 -30 3 -8 9 -14 25
-14 35 0 20 2 20 26 7 16 -8 18 -5 17 20 -1 24 -3 27 -16 16 -8 -8 -28 -17
-45 -20 -26 -7 -28 -9 -12 -18 14 -7 16 -13 6 -24 -6 -7 -16 -11 -21 -8 -6 4
-5 10 3 15 10 6 8 9 -8 9 -27 0 -44 -56 -22 -72 11 -8 11 -9 -1 -5 -8 2 -16
13 -18 25 -3 18 -10 22 -37 22 -19 0 -37 -5 -41 -12 -4 -6 -3 -9 2 -6 5 3 15
0 22 -8 11 -12 10 -14 -3 -14 -12 0 -14 -4 -5 -19 12 -23 14 -51 2 -36 -4 6
-16 15 -27 22 -11 6 -19 16 -17 22 1 6 -8 11 -20 12 l-23 0 21 9 c12 5 25 13
29 19 9 15 -18 14 -33 -1 -9 -9 -12 -8 -12 5 0 9 6 17 14 17 8 0 22 7 31 16
15 15 17 15 35 -1 24 -22 27 -10 4 13 -15 14 -15 17 1 29 23 16 35 9 28 -17
-3 -12 0 -20 6 -20 7 0 9 5 6 11 -4 6 -1 9 6 8 21 -4 89 21 89 33 0 6 -7 8
-15 4 -10 -3 -15 1 -15 13 0 10 -7 21 -15 25 -9 3 -15 0 -15 -9 0 -8 -4 -15
-10 -15 -5 0 -7 6 -4 13 3 8 -6 18 -21 25 -36 17 -44 15 -42 -8 1 -11 5 -20 9
-20 4 0 8 -4 8 -9 0 -5 -9 -7 -21 -4 -11 3 -18 11 -15 19 3 7 1 16 -4 19 -6 4
-10 2 -10 -4 0 -6 -7 -8 -15 -5 -18 7 -20 22 -2 21 6 0 21 1 32 2 17 1 18 3 5
12 -12 8 -10 9 8 4 12 -4 22 -2 22 4 0 5 -17 13 -37 16 -21 3 -50 13 -65 21
-19 10 -27 11 -30 3 -3 -8 -12 -7 -31 6 -23 15 -27 24 -27 66 0 35 -5 51 -17
57 -16 9 -16 11 0 27 9 9 17 21 17 27 0 21 33 78 45 78 6 0 20 -9 30 -20 10
-11 23 -20 29 -20 6 0 0 10 -14 21 -17 15 -19 19 -7 15 11 -3 16 -2 12 4 -3 6
-12 10 -19 10 -9 0 -13 11 -11 33 2 29 -1 33 -33 42 -19 6 -37 17 -39 25 -4
12 -2 12 5 2 10 -14 32 -13 45 3 6 6 10 6 14 -2 2 -7 16 -13 29 -13 13 0 24
-5 24 -11 0 -6 7 -9 15 -6 8 4 17 2 20 -3 4 -6 1 -10 -6 -10 -10 0 -10 -3 -1
-12 7 -7 12 -16 12 -20 0 -10 -32 -7 -40 4 -3 4 -12 3 -20 -3 -13 -8 -12 -11
5 -21 23 -14 97 -11 106 4 4 6 12 7 18 4 6 -4 18 0 27 8 22 23 43 20 56 -8 17
-38 5 -58 -27 -46 -36 14 -43 12 -21 -5 21 -16 81 -21 72 -6 -4 5 3 7 14 4 24
-6 24 13 0 37 -9 8 -11 12 -5 9 20 -12 55 -17 55 -8 0 5 -9 9 -20 9 -18 0 -19
3 -8 20 12 19 13 18 31 -10 11 -17 26 -30 35 -30 15 1 14 3 -2 15 -11 8 -15
15 -9 15 6 0 16 -7 23 -15 15 -18 40 -20 40 -4 0 8 5 8 15 -1 8 -7 24 -10 36
-7 12 3 18 3 15 0 -3 -4 0 -13 7 -22 11 -14 10 -14 -6 -2 -9 8 -20 11 -24 8
-3 -4 5 -15 18 -26 24 -19 24 -19 31 0 4 11 17 19 30 19 19 0 20 2 8 10 -9 6
-10 10 -3 10 6 0 15 -4 18 -10 11 -18 23 -11 18 10 -5 18 -3 19 26 9 17 -6 31
-17 31 -25 0 -8 -6 -11 -15 -8 -8 4 -15 2 -15 -4 0 -6 -10 -8 -22 -4 -15 4
-19 2 -13 -7 5 -9 19 -11 42 -6 24 4 33 3 28 -4 -3 -6 -2 -11 4 -11 5 0 15 -2
23 -5 7 -3 22 2 33 10 19 16 19 16 -10 11 -16 -3 -24 -3 -17 0 6 3 12 12 12
20 0 8 7 14 16 14 9 0 23 8 31 18 13 15 14 15 10 0 -8 -25 3 -29 34 -12 17 8
29 10 29 4 0 -5 -7 -10 -15 -10 -8 0 -15 -4 -15 -10 0 -5 6 -10 13 -10 9 0 8
-3 -2 -9 -9 -6 -2 -10 24 -13 21 -2 42 1 49 7 8 9 18 7 41 -6 30 -19 63 -27
35 -9 -13 8 -12 10 3 10 9 0 17 -4 17 -10 0 -5 10 -14 23 -21 26 -13 -169 187
-197 203 -17 9 -18 7 -14 -16 3 -15 1 -23 -4 -20 -6 4 -8 17 -5 30 8 46 -97
103 -248 135 -151 31 -363 26 -465 -11 -14 -5 -38 -11 -55 -13 -65 -10 -175
-49 -168 -60 8 -14 -19 5 -62 44 -30 27 -69 41 -114 44 -14 0 -26 6 -28 12 -2
5 -17 9 -33 7 -19 -2 -30 1 -30 9 0 9 -2 9 -8 0 -4 -6 -21 -13 -38 -16 -17 -3
-41 -10 -52 -16 -12 -6 -34 -12 -49 -13 -15 -1 -31 -6 -34 -11 -4 -5 -23 -4
-45 2 -25 7 -40 7 -42 1 -7 -20 -24 -9 -20 13 3 18 0 23 -16 23 -12 0 -24 -4
-27 -9 -9 -13 -29 1 -29 20 0 11 -7 8 -24 -12 -22 -25 -24 -26 -29 -9 -4 17
-5 18 -6 1 0 -10 -5 -15 -11 -12 -5 3 -10 -1 -10 -11 0 -14 -2 -14 -16 -3 -9
7 -23 14 -31 15 -8 2 -17 5 -20 8 -10 10 -13 66 -3 66 16 0 12 27 -5 34 -8 3
-15 1 -15 -5 0 -12 -39 -3 -55 13 -6 6 -4 7 8 3 10 -4 17 -2 17 4 0 6 9 11 19
11 17 0 18 4 10 32 -8 30 -1 57 8 31 3 -7 11 -13 19 -13 9 0 12 -5 9 -10 -4
-6 -11 -8 -16 -5 -11 8 -11 -6 0 -24 7 -11 13 -7 25 17 18 34 23 68 6 42 -7
-12 -12 -12 -22 -2 -10 10 -10 14 0 21 9 5 10 14 3 32 -5 13 -10 18 -10 12 -1
-7 -11 -12 -23 -12 -17 1 -19 2 -5 6 9 2 17 8 17 13 0 10 -45 3 -71 -11 -12
-6 -20 -5 -25 3 -4 7 -3 8 4 4 7 -4 12 -2 12 3 0 6 8 11 18 11 13 0 14 2 3 9
-8 5 -9 10 -2 12 7 3 7 9 1 19 -8 13 -10 12 -10 -3 0 -10 -4 -15 -10 -12 -6 3
-7 -1 -4 -9 4 -10 1 -16 -10 -16 -8 0 -13 6 -10 13 2 7 -4 13 -16 14 -14 1
-20 -4 -20 -19 0 -19 -4 -20 -52 -15 -31 4 -60 1 -72 -6 -12 -6 -37 -11 -56
-12 -27 0 -35 -4 -37 -20 -2 -15 -1 -16 5 -5 9 20 42 22 42 3 0 -8 -4 -12 -9
-8 -5 3 -16 -1 -23 -9 -13 -12 -16 -11 -26 5 -14 21 -34 26 -31 7 3 -28 -2
-49 -10 -43 -5 3 -12 -4 -16 -15 -3 -11 -11 -20 -16 -20 -13 0 -11 24 3 38 9
9 9 12 -1 12 -7 0 -11 6 -8 14 4 10 1 13 -8 9 -8 -3 -13 -9 -10 -13 3 -4 -10
-8 -29 -7 -23 1 -32 5 -29 14 3 7 0 13 -6 13 -16 0 -13 -21 5 -41 13 -14 21
-16 36 -8 11 6 22 8 26 5 3 -3 0 -6 -6 -6 -7 0 -12 -9 -12 -20 0 -11 -2 -20
-4 -20 -2 0 -11 -3 -20 -6 -9 -3 -16 -1 -16 6 0 6 5 8 11 4 7 -4 10 -1 7 7 -3
8 -12 13 -22 11 -9 -2 -16 2 -16 8 0 20 -16 10 -17 -12 -2 -25 14 -58 28 -58
6 0 7 5 4 10 -3 6 1 10 9 10 9 0 16 -2 16 -4 0 -2 6 -19 14 -37 14 -34 14 -34
-15 -35 -24 -1 -29 3 -29 24 0 18 -4 23 -16 18 -9 -4 -23 -1 -31 5 -18 16 -26
6 -28 -36 -2 -34 8 -47 18 -22 3 7 6 5 6 -5 1 -19 -35 -26 -41 -8 -1 5 -15 11
-30 12 -19 2 -28 8 -28 20 0 9 -4 20 -10 23 -13 8 -13 35 1 35 5 0 7 -4 4 -10
-3 -5 6 -12 19 -16 21 -5 24 -9 15 -25 -6 -12 -6 -19 0 -19 5 0 13 9 16 21 5
14 0 27 -18 43 l-24 23 28 10 c16 6 29 18 29 27 0 10 -6 13 -15 10 -18 -7 -18
-8 -6 33 8 27 6 32 -10 36 -16 4 -19 2 -14 -14 6 -18 5 -19 -15 -7 -18 11 -22
11 -31 -4 -6 -10 -17 -18 -26 -18 -9 0 -13 -6 -10 -15 4 -8 1 -17 -5 -21 -6
-4 -8 -3 -5 3 4 6 -2 21 -13 33 l-19 22 4 -31 c2 -17 6 -35 9 -40 4 -5 1 -13
-5 -17 -7 -4 -9 -3 -6 3 4 5 -5 20 -18 31 -30 26 -31 37 -7 52 15 10 14 10 -5
5 -12 -3 -25 -1 -28 6 -6 8 -9 8 -15 -1 -4 -7 -13 -9 -19 -6 -16 11 -13 24 7
29 14 3 13 4 -3 4 -39 1 -45 3 -45 14 0 7 10 9 24 7 21 -4 23 -3 13 14 -7 10
-15 18 -20 18 -4 0 -6 3 -4 8 3 4 -6 7 -19 7 -15 0 -22 -5 -20 -15z m109 -112
c6 -21 2 -36 -7 -27 -10 11 -16 49 -8 49 5 0 12 -10 15 -22z m137 -8 c0 -5 5
-10 11 -10 5 0 7 5 4 10 -3 6 -1 10 4 10 13 0 13 -3 5 -24 -5 -12 -9 -13 -25
-3 -20 13 -25 27 -9 27 6 0 10 -4 10 -10z m670 -20 c0 -5 -7 -7 -15 -4 -8 4
-15 8 -15 10 0 2 7 4 15 4 8 0 15 -4 15 -10z m-311 -37 c10 -19 9 -22 -5 -16
-14 5 -15 3 -5 -15 10 -18 9 -21 -4 -16 -8 4 -15 10 -15 14 0 4 -9 10 -21 13
-16 4 -18 3 -9 -8 9 -11 7 -12 -9 -8 -25 6 -25 5 -2 32 18 20 20 21 29 5 9
-16 10 -15 17 5 8 25 8 25 24 -6z m-1739 -33 c0 -5 -4 -10 -10 -10 -5 0 -10 5
-10 10 0 6 5 10 10 10 6 0 10 -4 10 -10z m2025 -21 c11 -16 1 -19 -13 -3 -7 8
-8 14 -3 14 5 0 13 -5 16 -11z m-1674 -30 c-7 -16 -10 -18 -10 -7 -1 9 -4 18
-8 21 -5 2 -2 2 5 1 6 -2 12 2 12 8 0 6 2 9 5 6 3 -3 1 -16 -4 -29z m893 5 c7
-19 2 -18 -19 6 -16 17 -16 20 -3 15 9 -4 19 -13 22 -21z m436 6 c-9 -6 -10
-10 -3 -10 6 0 15 5 18 10 7 12 25 4 25 -12 0 -7 -14 -8 -39 -4 -29 4 -40 2
-45 -9 -3 -8 -10 -15 -15 -15 -21 0 3 33 33 45 33 14 50 10 26 -5z m390 10 c0
-5 -4 -10 -9 -10 -6 0 -13 5 -16 10 -3 6 1 10 9 10 9 0 16 -4 16 -10z m-1672
-45 c-3 -3 -9 2 -12 12 -6 14 -5 15 5 6 7 -7 10 -15 7 -18z m52 -16 c0 -8 -3
-9 -13 0 -8 6 -17 8 -20 4 -4 -3 -7 0 -7 9 0 8 3 17 6 21 8 8 34 -18 34 -34z
m1134 4 c-17 -17 -17 -18 0 -21 12 -3 15 -10 11 -23 -4 -12 -2 -19 6 -19 7 0
9 3 6 7 -4 3 0 15 10 25 9 10 13 18 9 18 -4 0 -1 6 7 14 15 15 56 11 58 -5 4
-34 1 -54 -9 -51 -7 1 -12 -5 -12 -13 0 -16 9 -19 49 -15 18 1 22 -2 18 -14
-4 -11 -1 -13 11 -9 15 6 15 5 3 -11 -8 -9 -20 -15 -28 -12 -7 3 -13 3 -13 0
0 -7 52 -27 80 -29 14 -1 31 -3 38 -4 7 0 10 -6 7 -11 -9 -14 20 -41 48 -44
13 -1 28 -5 34 -9 6 -4 13 -3 15 3 1 5 13 7 26 3 14 -3 21 -11 18 -19 -3 -8 0
-14 6 -14 7 0 7 -4 -1 -13 -13 -17 -5 -28 15 -20 10 4 12 0 8 -11 -5 -12 -2
-15 10 -10 9 3 14 9 11 13 -2 4 10 5 27 3 28 -4 30 -3 25 17 -4 17 -2 21 10
17 8 -3 22 -6 31 -7 12 0 13 -2 4 -6 -10 -4 -9 -8 5 -19 24 -18 43 -18 43 1 0
8 6 24 13 35 9 16 9 22 0 28 -7 4 -9 13 -4 21 6 10 11 9 23 -3 14 -14 16 -13
22 7 6 20 7 21 17 5 15 -26 31 -22 24 5 -5 19 -4 20 5 5 14 -23 30 -23 30 1 0
25 25 47 36 30 5 -8 3 -9 -6 -4 -8 5 -11 4 -6 -3 8 -13 36 -5 36 10 0 7 5 7
13 0 7 -6 32 -14 54 -18 32 -5 40 -10 36 -22 -5 -12 0 -14 28 -8 46 9 79 9
107 1 19 -6 21 -4 16 11 -5 12 2 9 19 -10 l26 -30 -26 -13 c-17 -9 -30 -10
-43 -3 -13 7 -20 6 -22 -2 -4 -10 -23 -17 -55 -20 -7 -1 -13 -7 -13 -13 0 -21
-28 -39 -43 -27 -8 7 -18 7 -27 2 -8 -6 -19 -10 -25 -10 -5 0 -3 5 5 10 13 8
12 10 -3 10 -10 0 -20 -6 -23 -13 -6 -17 -41 -19 -48 -2 -3 10 -22 13 -67 11
-55 -3 -64 -6 -71 -26 -7 -19 -10 -21 -25 -9 -14 12 -16 12 -8 0 6 -11 3 -13
-13 -9 -12 4 -22 2 -22 -2 0 -5 7 -10 17 -12 14 -3 14 -5 -2 -18 -15 -12 -17
-12 -10 -1 6 11 4 13 -8 8 -10 -3 -17 -2 -17 3 0 6 -4 10 -10 10 -18 0 -11
-30 8 -31 13 0 12 -2 -5 -9 -13 -5 -23 -17 -23 -26 0 -10 -6 -14 -14 -11 -19
8 -35 -11 -28 -35 3 -15 11 -19 29 -15 16 3 29 -2 39 -17 11 -14 18 -17 21 -8
6 16 23 16 23 -1 0 -7 10 -13 22 -14 11 -1 24 -6 27 -10 3 -5 17 -8 31 -7 34
2 110 -43 110 -66 0 -16 -5 -17 -45 -8 -49 11 -75 6 -75 -13 0 -7 3 -9 6 -6 4
3 16 1 28 -5 11 -7 27 -13 35 -14 8 -2 17 -8 22 -15 4 -7 24 -13 44 -13 30 -1
40 -7 51 -29 12 -23 21 -27 55 -27 24 0 38 -4 34 -10 -9 -14 -50 -12 -91 5
-27 11 -41 12 -56 4 -13 -7 -18 -7 -14 -1 10 16 -15 26 -25 11 -6 -9 -12 -10
-16 -4 -5 6 -15 11 -23 13 -19 3 -93 35 -100 42 -17 18 -63 41 -69 33 -8 -12
-51 -12 -51 0 0 5 -7 6 -16 3 -9 -3 -21 -3 -27 1 -16 10 -57 11 -57 1 0 -4 5
-8 10 -8 6 0 10 -4 10 -10 0 -24 -68 3 -97 40 -11 13 -12 13 -13 -2 0 -10 5
-18 10 -18 6 0 10 -8 10 -17 0 -13 -3 -14 -12 -5 -15 15 -32 16 -23 2 8 -13
-1 -13 -26 0 -15 8 -23 7 -35 -5 -14 -13 -13 -15 5 -15 22 0 25 -8 15 -33 -3
-10 -14 -14 -30 -11 -13 2 -24 0 -24 -6 0 -5 4 -10 9 -10 5 0 7 -9 4 -19 -6
-23 -43 -60 -43 -43 0 7 6 12 13 12 6 0 3 6 -7 12 -15 8 -21 8 -24 0 -2 -7 -8
-10 -13 -6 -5 3 -9 -3 -9 -13 0 -14 -2 -15 -9 -4 -8 12 -12 12 -26 -2 -18 -18
-40 -23 -30 -7 3 6 -1 13 -9 16 -9 3 -16 14 -17 23 0 9 -3 11 -5 4 -3 -6 -17
-10 -32 -8 -26 4 -25 4 6 -12 37 -19 43 -38 10 -28 -13 4 -25 7 -28 7 -22 0
-30 -4 -31 -19 -1 -16 -2 -17 -6 -1 -2 9 -10 15 -17 12 -8 -3 -16 2 -19 10 -4
11 -1 13 10 9 12 -5 15 -2 10 10 -4 10 -1 17 6 17 7 1 5 6 -5 14 -10 7 -15 16
-11 19 3 4 1 7 -5 7 -6 0 -16 -8 -21 -17 -6 -10 -11 -13 -11 -6 0 7 -6 10 -13
7 -8 -3 -20 2 -27 11 -7 8 -20 15 -28 15 -12 0 -13 -3 -4 -12 16 -16 15 -49 0
-46 -7 2 -12 -3 -10 -10 2 -9 -8 -6 -28 8 -16 12 -30 25 -30 30 0 5 -7 7 -16
3 -8 -3 -13 -12 -10 -19 3 -7 1 -16 -3 -19 -5 -2 -12 12 -16 32 -8 43 -32 93
-44 93 -5 0 -7 -10 -3 -22 5 -23 5 -23 -16 -4 -20 17 -22 17 -22 2 0 -9 9 -36
20 -59 11 -23 15 -34 8 -24 -7 10 -19 26 -26 35 -12 15 -12 14 -7 -6 4 -13 2
-29 -5 -37 -12 -14 -4 -61 13 -72 7 -4 8 5 4 28 -4 21 -3 28 2 19 14 -25 24
-93 12 -85 -6 3 -11 0 -11 -7 -1 -7 -8 1 -17 17 -11 19 -17 54 -18 98 0 53 -4
72 -17 81 -13 10 -15 15 -6 24 9 9 9 12 0 12 -6 0 -9 7 -6 15 4 8 1 22 -5 29
-9 10 -9 16 -1 21 8 5 5 12 -7 22 -10 8 -11 11 -4 7 16 -8 -23 51 -40 61 -5 4
-7 11 -4 16 4 5 1 9 -4 9 -6 0 -11 5 -11 11 0 6 -14 31 -31 55 -17 25 -29 47
-27 49 1 2 17 -17 33 -41 30 -43 51 -56 53 -31 0 6 3 21 6 32 2 11 5 24 5 28
1 5 6 5 11 2 6 -3 10 4 10 16 0 21 1 21 19 5 11 -10 24 -15 29 -12 5 3 9 -7
10 -22 1 -107 5 -162 12 -162 4 0 15 -17 23 -37 9 -21 16 -32 16 -25 1 22 16
13 30 -18 12 -29 14 -30 27 -13 13 17 13 17 14 -2 1 -19 2 -19 12 3 7 14 20
22 37 23 22 0 23 1 7 8 -17 7 -17 8 -3 14 11 4 14 14 11 31 -3 19 3 33 25 53
23 22 27 33 20 51 -5 13 -5 22 1 22 6 0 10 7 10 15 0 9 10 20 23 24 19 8 20
10 5 16 -10 4 -18 14 -18 22 0 8 4 11 10 8 6 -3 7 1 4 9 -3 9 -10 16 -15 16
-5 0 -9 7 -9 16 0 8 -4 12 -10 9 -15 -9 -12 4 4 20 7 8 17 11 21 7 5 -4 5 2 1
12 -4 12 0 26 10 37 16 17 18 18 29 2 20 -27 26 1 7 38 -21 41 -21 52 -3 77 8
12 21 17 37 14 23 -4 23 -4 -9 -33 l-31 -29 44 1 c25 1 37 3 28 6 -20 5 -25
24 -6 21 7 -2 14 7 16 20 2 12 -2 22 -8 22 -7 0 -5 6 4 16 32 31 16 45 -22 18
-12 -8 -22 -13 -22 -10 0 11 58 64 64 59 3 -4 6 -1 6 5 0 7 9 12 21 12 19 0
20 -1 3 -17z m-1061 0 c-7 -2 -19 -2 -25 0 -7 3 -2 5 12 5 14 0 19 -2 13 -5z
m1207 -3 c0 -5 -5 -10 -11 -10 -5 0 -7 5 -4 10 3 6 8 10 11 10 2 0 4 -4 4 -10z
m350 6 c0 -3 -4 -8 -10 -11 -5 -3 -10 -1 -10 4 0 6 5 11 10 11 6 0 10 -2 10
-4z m204 -45 c-10 -10 -21 -17 -23 -15 -6 6 20 34 32 34 6 0 2 -8 -9 -19z
m-2264 -23 c0 -6 -6 -5 -15 2 -8 7 -15 14 -15 16 0 2 7 1 15 -2 8 -4 15 -11
15 -16z m1130 -34 c19 -44 25 -74 16 -74 -2 0 -12 -3 -21 -6 -15 -6 -15 -4 -5
12 10 16 9 27 -4 58 -29 70 -17 79 14 10z m-1267 6 c3 -11 1 -18 -4 -14 -5 3
-9 12 -9 20 0 20 7 17 13 -6z m1572 10 c3 -5 1 -10 -4 -10 -6 0 -11 5 -11 10
0 6 2 10 4 10 3 0 8 -4 11 -10z m635 -5 c0 -8 -4 -15 -10 -15 -5 0 -10 7 -10
15 0 8 5 15 10 15 6 0 10 -7 10 -15z m-1300 -39 c0 -6 -7 -2 -15 8 -8 11 -15
25 -15 30 0 6 7 2 15 -8 8 -11 15 -25 15 -30z m1410 34 c0 -12 -42 -31 -50
-23 -6 5 30 33 42 33 4 0 8 -5 8 -10z m-1000 -31 c0 -5 -4 -9 -10 -9 -5 0 -10
7 -10 16 0 8 5 12 10 9 6 -3 10 -10 10 -16z m-467 -59 c-6 -6 -33 30 -33 43 0
5 9 -1 19 -14 11 -13 17 -26 14 -29z m407 37 c0 -8 -7 -14 -15 -14 -16 0 -19
9 -8 20 11 11 23 8 23 -6z m1574 -2 c-4 -8 -10 -15 -15 -15 -4 0 -6 7 -3 15 4
8 10 15 15 15 4 0 6 -7 3 -15z m247 -22 c13 -15 12 -15 -8 -4 -24 12 -29 21
-14 21 5 0 15 -7 22 -17z m-2397 -24 c-8 -13 -21 -11 -27 5 -4 10 0 12 14 9
10 -3 16 -9 13 -14z m1941 11 c-3 -5 -12 -10 -18 -10 -7 0 -6 4 3 10 19 12 23
12 15 0z m185 -1 c0 -21 -13 -37 -26 -32 -22 8 -17 39 6 39 11 0 20 -3 20 -7z
m-1723 -46 c-3 -10 -5 -2 -5 17 0 19 2 27 5 18 2 -10 2 -26 0 -35z m1136 30
c-5 -2 -8 -15 -5 -29 4 -24 3 -25 -17 -15 -24 13 -25 15 -11 41 7 13 16 17 27
13 9 -4 12 -8 6 -10z m720 0 c21 -6 15 -16 -11 -19 -9 -1 -36 -8 -60 -15 -44
-12 -68 -5 -42 11 8 6 11 10 5 10 -5 0 -1 7 10 16 18 14 42 13 98 -3z m212 -3
c3 -6 -5 -10 -19 -10 -14 0 -28 5 -31 10 -3 6 5 10 19 10 14 0 28 -4 31 -10z
m154 -4 c9 -11 7 -15 -11 -19 -28 -8 -49 10 -28 23 20 13 26 12 39 -4z m31 4
c0 -5 -2 -10 -4 -10 -3 0 -8 5 -11 10 -3 6 -1 10 4 10 6 0 11 -4 11 -10z m110
-5 c11 -13 10 -14 -4 -9 -9 3 -16 10 -16 15 0 13 6 11 20 -6z m205 5 c3 -5 1
-10 -4 -10 -6 0 -11 5 -11 10 0 6 2 10 4 10 3 0 8 -4 11 -10z m-85 -19 c0 -6
-4 -12 -8 -15 -5 -3 -9 1 -9 9 0 8 4 15 9 15 4 0 8 -4 8 -9z m130 -6 c0 -8 6
-15 13 -16 6 0 3 -4 -8 -9 -24 -11 -41 -12 -32 -3 4 3 -1 12 -11 20 -16 14
-16 14 1 9 9 -3 17 -1 17 4 0 6 5 10 10 10 6 0 10 -7 10 -15z m-550 -10 c0 -8
-4 -15 -10 -15 -5 0 -10 7 -10 15 0 8 5 15 10 15 6 0 10 -7 10 -15z m719 -7
c0 -13 -3 -17 -6 -10 -2 6 -12 12 -21 12 -15 0 -15 2 -2 10 23 15 30 12 29
-12z m-873 -2 c10 -8 16 -18 12 -22 -10 -9 -58 12 -58 26 0 14 23 12 46 -4z
m-3038 -31 c-3 -3 -9 2 -12 12 -6 14 -5 15 5 6 7 -7 10 -15 7 -18z m982 2 c0
-7 16 -37 35 -67 19 -30 35 -63 35 -75 0 -16 -4 -14 -20 13 -11 18 -20 39 -20
46 0 7 -8 24 -19 37 -23 29 -38 75 -22 65 6 -4 11 -13 11 -19z m170 -10 c0 -5
-4 -5 -10 -2 -5 3 -10 14 -10 23 0 15 2 15 10 2 5 -8 10 -19 10 -23z m400 29
c0 -3 -4 -8 -10 -11 -5 -3 -10 -1 -10 4 0 6 5 11 10 11 6 0 10 -2 10 -4z
m-350 -27 c0 -6 -4 -7 -10 -4 -5 3 -10 11 -10 16 0 6 5 7 10 4 6 -3 10 -11 10
-16z m-1066 -14 c-5 -12 4 -15 45 -15 28 0 51 -5 51 -10 0 -6 -11 -8 -25 -6
-22 4 -24 2 -15 -14 7 -13 6 -19 -6 -24 -8 -3 -17 1 -20 9 -4 8 -12 15 -19 15
-14 0 -27 38 -19 52 9 14 14 9 8 -7z m3991 5 c3 -5 1 -10 -4 -10 -6 0 -11 5
-11 10 0 6 2 10 4 10 3 0 8 -4 11 -10z m-1360 -25 c11 -4 30 -11 42 -17 11 -6
26 -7 32 -4 6 4 11 3 11 -3 0 -6 16 -9 35 -7 21 1 36 -3 39 -11 3 -7 12 -10
21 -7 32 13 13 -6 -25 -25 -45 -22 -60 -20 -150 22 -30 13 -70 28 -87 32 -51
10 -41 30 15 29 26 -1 56 -5 67 -9z m312 -15 c3 -11 9 -20 14 -20 5 0 9 -5 9
-12 0 -6 -7 -4 -18 5 -10 10 -24 17 -30 17 -7 0 -12 7 -12 15 0 22 31 18 37
-5z m-2257 6 c0 -3 -4 -8 -10 -11 -5 -3 -10 -1 -10 4 0 6 5 11 10 11 6 0 10
-2 10 -4z m288 -18 c21 -40 49 -87 62 -103 10 -12 9 -16 -5 -21 -19 -8 -32 8
-40 46 -3 14 -15 42 -26 63 -11 20 -16 37 -11 37 5 0 14 -10 20 -22z m186 6
c3 -8 2 -12 -4 -9 -6 3 -10 10 -10 16 0 14 7 11 14 -7z m-1174 -34 c0 -5 -4
-10 -9 -10 -6 0 -13 5 -16 10 -3 6 1 10 9 10 9 0 16 -4 16 -10z m60 -20 c0 -5
-5 -10 -11 -10 -5 0 -7 5 -4 10 3 6 8 10 11 10 2 0 4 -4 4 -10z m2800 4 c0
-14 -29 -34 -35 -23 -5 6 -12 4 -20 -8 -7 -10 -16 -15 -20 -12 -9 9 25 40 36
34 5 -4 9 -1 9 4 0 6 7 11 15 11 8 0 15 -3 15 -6z m35 -14 c3 -6 -1 -7 -9 -4
-18 7 -21 14 -7 14 6 0 13 -4 16 -10z m-1916 -46 c12 -25 20 -48 17 -51 -4 -4
-46 81 -46 93 0 13 11 -2 29 -42z m-399 21 c11 -13 10 -14 -4 -9 -9 3 -16 10
-16 15 0 13 6 11 20 -6z m1803 -12 c-7 -2 -19 -2 -25 0 -7 3 -2 5 12 5 14 0
19 -2 13 -5z m125 -20 c7 -7 27 -13 44 -13 19 0 28 -4 26 -12 -3 -8 -26 -14
-62 -15 -45 -2 -60 2 -73 17 -9 10 -22 16 -29 13 -8 -3 -14 2 -14 11 0 14 9
16 48 14 26 -2 53 -9 60 -15z m-2343 -3 c3 -5 2 -10 -4 -10 -5 0 -13 5 -16 10
-3 6 -2 10 4 10 5 0 13 -4 16 -10z m2738 -4 c4 -10 1 -13 -9 -9 -15 6 -19 23
-5 23 5 0 11 -7 14 -14z m-1825 -37 c-3 -8 -7 -3 -11 10 -4 17 -3 21 5 13 5
-5 8 -16 6 -23z m1787 13 c-3 -3 -11 0 -18 7 -9 10 -8 11 6 5 10 -3 15 -9 12
-12z m-2645 -1 c0 -5 -7 -12 -16 -15 -8 -3 -12 -2 -9 3 3 5 -3 12 -12 14 -11
3 -8 5 10 6 15 0 27 -3 27 -8z m715 -71 c7 -29 74 -170 80 -170 2 0 2 7 -1 15
-4 8 -1 15 6 15 6 0 8 6 4 13 -5 8 -4 9 3 2 14 -14 32 -125 37 -230 3 -49 2
-78 0 -62 -3 15 -9 25 -14 22 -5 -3 -12 0 -16 6 -4 8 -3 9 4 5 7 -4 12 -2 12
3 0 6 -6 11 -14 11 -8 0 -18 15 -22 33 -4 17 -8 34 -9 37 -1 3 -9 30 -19 60
-17 55 -45 152 -51 180 -2 8 -12 42 -23 75 -19 56 -19 58 -2 35 11 -14 22 -36
25 -50z m113 15 c0 -16 -2 -15 -8 5 -11 34 -11 60 0 35 5 -11 8 -29 8 -40z
m2052 -6 c0 -5 4 -8 9 -5 9 6 8 -19 0 -54 -3 -9 3 -15 16 -16 27 0 55 -14 55
-26 0 -6 -11 -7 -27 -3 -27 6 -27 6 -8 -9 21 -16 17 -20 -9 -10 -9 3 -16 12
-16 19 0 23 -29 25 -44 4 -8 -12 -16 -16 -20 -10 -4 5 -13 8 -20 5 -8 -3 -17
0 -21 6 -11 17 1 23 23 11 15 -8 23 -7 32 4 16 20 5 32 -14 16 -11 -9 -17 -8
-30 4 -18 19 -20 31 -6 40 6 4 8 12 4 18 -3 7 2 3 10 -7 15 -19 22 -12 17 17
0 4 10 7 24 7 14 0 25 -5 25 -11z m-2123 -71 c-3 -7 -5 -2 -5 12 0 14 2 19 5
13 2 -7 2 -19 0 -25z m50 0 c-3 -8 -6 -5 -6 6 -1 11 2 17 5 13 3 -3 4 -12 1
-19z m40 -30 c-3 -8 -6 -5 -6 6 -1 11 2 17 5 13 3 -3 4 -12 1 -19z m983 -9 c0
-6 -4 -7 -10 -4 -5 3 -10 11 -10 16 0 6 5 7 10 4 6 -3 10 -11 10 -16z m1634
-5 c9 -3 16 -13 16 -21 0 -8 4 -12 9 -8 5 3 12 1 16 -5 3 -5 1 -10 -5 -10 -6
0 -8 -5 -4 -12 5 -8 0 -7 -11 2 -17 14 -18 13 -12 -2 7 -19 -8 -25 -18 -8 -4
6 -11 8 -16 5 -5 -4 -9 -1 -9 5 0 6 -4 9 -9 6 -11 -7 -33 18 -24 27 3 4 13 1
21 -5 18 -16 52 -21 52 -8 0 6 -7 13 -15 16 -8 4 -15 10 -15 15 0 11 3 11 24
3z m76 -34 c7 -13 7 -20 1 -20 -6 0 -15 9 -21 20 -7 13 -7 20 -1 20 6 0 15 -9
21 -20z m-687 -14 c4 -10 1 -13 -9 -9 -7 3 -14 9 -14 14 0 14 17 10 23 -5z
m691 -31 c3 -9 -6 -16 -27 -20 -18 -4 -36 -11 -42 -15 -5 -4 -23 -10 -40 -14
-28 -6 -28 -5 -8 6 17 11 20 17 12 33 -10 20 -10 20 6 0 15 -18 17 -19 43 -2
15 9 26 21 25 26 -4 15 25 2 31 -14z m-469 5 c3 -5 1 -10 -4 -10 -6 0 -11 5
-11 10 0 6 2 10 4 10 3 0 8 -4 11 -10z m35 -10 c0 -5 -2 -10 -4 -10 -3 0 -8 5
-11 10 -3 6 -1 10 4 10 6 0 11 -4 11 -10z m245 1 c7 -12 -12 -24 -25 -16 -11
7 -4 25 10 25 5 0 11 -4 15 -9z m55 -14 c0 -7 -9 -13 -20 -14 -11 -1 -20 3
-20 8 0 6 4 8 9 4 5 -3 12 -1 16 5 9 14 15 13 15 -3z m-355 -37 c3 -5 1 -10
-4 -10 -6 0 -11 5 -11 10 0 6 2 10 4 10 3 0 8 -4 11 -10z m325 0 c0 -5 -7 -10
-16 -10 -8 0 -12 5 -9 10 3 6 10 10 16 10 5 0 9 -4 9 -10z m180 -6 c0 -2 -7
-4 -15 -4 -8 0 -15 4 -15 10 0 5 7 7 15 4 8 -4 15 -8 15 -10z m-10 -25 c0 -4
-7 -9 -15 -13 -9 -3 -15 0 -15 9 0 8 -6 13 -12 11 -7 -1 -10 -1 -5 1 4 3 5 8
2 13 -3 4 6 3 20 -3 14 -7 25 -15 25 -18z m124 10 c3 -3 -3 -10 -14 -17 -16
-10 -18 -9 -17 7 1 17 19 22 31 10z m166 5 c0 -3 -7 -12 -16 -21 -11 -12 -18
-13 -27 -4 -8 8 -7 11 6 11 9 0 17 5 17 10 0 6 5 10 10 10 6 0 10 -3 10 -6z
m-3093 -26 c-3 -8 -6 -5 -6 6 -1 11 2 17 5 13 3 -3 4 -12 1 -19z m2997 13 c4
-5 -4 -7 -16 -3 -14 3 -19 1 -14 -6 7 -11 -31 -28 -41 -18 -4 3 1 6 9 6 9 0
18 7 22 15 6 17 32 20 40 6z m306 -1 c0 -5 -2 -10 -4 -10 -3 0 -8 5 -11 10 -3
6 -1 10 4 10 6 0 11 -4 11 -10z m-3827 -19 c8 -8 2 -10 -23 -5 -60 12 -80 25
-31 20 24 -2 48 -9 54 -15z m3242 3 c-9 -9 -19 -13 -23 -10 -3 4 0 11 8 16 24
15 33 11 15 -6z m165 -3 c0 -12 -20 -25 -27 -18 -7 7 6 27 18 27 5 0 9 -4 9
-9z m301 -24 c-8 -8 -11 -7 -11 4 0 9 3 19 7 23 4 4 9 2 11 -4 3 -7 -1 -17 -7
-23z m173 24 c3 -5 -2 -11 -12 -13 -11 -3 -19 0 -19 8 0 16 23 19 31 5z m-680
-10 c4 -5 -3 -7 -14 -4 -23 6 -26 13 -6 13 8 0 17 -4 20 -9z m175 -52 c-12
-23 -28 -24 -35 -4 -4 8 -12 15 -20 15 -8 0 -14 5 -14 11 0 6 7 9 15 5 10 -4
15 1 15 14 0 19 1 19 25 -2 19 -16 22 -25 14 -39z m-79 40 c0 -15 -12 -39 -20
-39 -4 0 -7 10 -6 23 1 21 26 36 26 16z m445 -10 c-10 -15 -25 -10 -19 6 4 8
10 12 15 9 5 -3 7 -10 4 -15z m-480 1 c3 -5 1 -10 -4 -10 -6 0 -11 5 -11 10 0
6 2 10 4 10 3 0 8 -4 11 -10z m265 3 c-1 -18 -19 -35 -29 -28 -9 5 -7 11 6 21
21 16 23 16 23 7z m-3444 -25 l19 -23 -25 20 c-14 11 -27 21 -29 22 -2 2 0 3
6 3 5 0 18 -10 29 -22z m451 -40 c-2 -13 -4 -3 -4 22 0 25 2 35 4 23 2 -13 2
-33 0 -45z m243 32 c9 13 10 13 11 0 3 -47 7 -63 20 -71 11 -7 10 -9 -4 -9
-10 0 -15 -4 -12 -10 9 -15 -8 -12 -31 4 -10 8 -16 18 -11 22 4 4 7 2 7 -4 0
-7 5 -12 10 -12 6 0 10 14 10 30 0 17 -4 30 -10 30 -5 0 -10 -7 -10 -15 0 -8
-4 -15 -8 -15 -5 0 -9 6 -9 13 0 7 -3 26 -7 42 l-7 29 20 -25 c18 -20 22 -22
31 -9z m2644 15 c-4 -8 -1 -15 5 -15 6 0 11 4 11 10 0 5 7 7 15 4 8 -4 15 -10
15 -16 0 -5 -4 -6 -10 -3 -5 3 -15 -6 -22 -21 l-13 -27 -6 34 c-4 18 -5 37 -3
41 9 14 14 9 8 -7z m-2594 -35 c0 -5 -4 -10 -10 -10 -5 0 -10 5 -10 10 0 6 5
10 10 10 6 0 10 -4 10 -10z m-1040 -62 c0 -23 -3 -29 -11 -21 -6 6 -8 20 -4
32 9 30 15 26 15 -11z m240 -8 c0 -5 -5 -10 -11 -10 -5 0 -7 5 -4 10 3 6 8 10
11 10 2 0 4 -4 4 -10z m25 -20 c3 -5 1 -10 -4 -10 -6 0 -11 5 -11 10 0 6 2 10
4 10 3 0 8 -4 11 -10z m-255 -42 c0 -5 -7 -3 -15 6 -8 8 -15 18 -15 22 0 3 7
1 15 -6 8 -7 15 -17 15 -22z m-63 -10 c-3 -8 -6 -5 -6 6 -1 11 2 17 5 13 3 -3
4 -12 1 -19z m-49 -13 c-3 -3 -9 2 -12 12 -6 14 -5 15 5 6 7 -7 10 -15 7 -18z
m368 -2 c-10 -10 -19 5 -10 18 6 11 8 11 12 0 2 -7 1 -15 -2 -18z m260 11 c-3
-9 -6 -21 -6 -27 0 -7 -5 -4 -11 6 -11 18 -5 37 13 37 5 0 7 -7 4 -16z m44 -5
c0 -6 -4 -7 -10 -4 -5 3 -10 11 -10 16 0 6 5 7 10 4 6 -3 10 -11 10 -16z
m-649 -58 c19 -57 70 -163 75 -158 3 3 1 15 -6 26 -6 12 -8 21 -4 21 4 0 0 8
-8 18 -20 23 -64 142 -53 142 13 0 35 -36 35 -57 0 -14 8 -37 19 -51 20 -29
34 -72 37 -114 3 -32 43 -90 57 -81 6 3 -1 16 -16 29 -26 22 -38 52 -16 38 8
-4 8 0 0 15 -10 17 -9 21 4 21 8 0 21 -16 29 -35 8 -19 20 -35 25 -35 6 0 11
-13 11 -29 0 -25 -3 -28 -22 -24 -19 5 -21 3 -10 -8 23 -25 13 -109 -13 -109
-14 0 -31 37 -22 47 3 2 8 -5 12 -18 6 -17 9 -19 16 -8 11 18 11 32 0 25 -5
-3 -11 4 -14 17 -3 12 -12 40 -21 62 -14 37 -15 38 -16 12 0 -16 4 -36 9 -46
8 -13 6 -18 -5 -18 -8 0 -17 10 -20 23 -3 12 -15 25 -27 28 -26 6 -33 1 -20
-16 15 -18 40 -105 48 -160 3 -26 11 -50 17 -54 6 -4 8 1 5 12 -3 11 -8 46
-11 79 -5 60 -5 60 6 15 25 -106 29 -120 38 -120 6 0 10 18 10 40 0 48 14 51
36 9 8 -17 11 -28 5 -25 -6 4 -11 0 -11 -8 0 -8 5 -18 11 -22 8 -4 8 -9 -1
-18 -8 -8 -13 -7 -20 4 -17 27 -23 0 -22 -92 0 -51 -2 -87 -5 -80 -4 10 -8 10
-19 1 -11 -9 -14 -8 -14 3 0 8 -7 23 -15 34 -13 18 -14 18 -9 -6 3 -14 -2 -7
-11 15 -33 79 -34 81 -28 37 4 -34 3 -43 -8 -42 -29 5 -38 0 -33 -17 4 -11 -5
-5 -21 12 -14 17 -24 24 -20 18 3 -7 2 -13 -3 -13 -11 0 -26 54 -24 85 0 11
-2 14 -4 8 -8 -18 -31 -16 -38 3 -4 9 -9 14 -12 11 -3 -3 8 -24 26 -46 18 -22
30 -45 28 -53 -3 -8 -12 0 -22 20 -20 39 -40 43 -24 5 7 -16 15 -32 20 -37 11
-14 10 -26 -2 -26 -9 0 -30 38 -34 60 -1 3 -5 10 -9 17 -4 6 -2 13 5 15 6 2 8
9 4 16 -10 16 -36 3 -36 -19 0 -12 -7 -19 -19 -19 -11 0 -21 -3 -24 -7 -2 -5
-2 -3 -1 4 2 6 -4 17 -12 23 -8 7 -14 16 -14 21 0 5 -9 18 -21 30 -26 26 -16
39 11 14 25 -23 27 -2 2 22 -18 18 -36 52 -34 64 1 4 -7 14 -18 24 -10 9 -16
23 -13 31 3 9 0 12 -9 9 -18 -7 -49 26 -40 42 5 8 21 -1 50 -28 24 -21 47 -39
52 -39 6 0 10 -4 10 -10 0 -5 6 -10 14 -10 8 0 17 -6 19 -12 3 -7 6 -3 6 10 1
16 -4 22 -15 20 -10 -2 -19 3 -21 10 -3 6 1 12 8 12 8 0 5 8 -7 21 -17 19 -19
19 -26 2 -6 -13 -7 -10 -3 9 6 29 -10 47 -28 29 -16 -16 -46 15 -40 40 5 18
-4 24 -34 20 -7 -1 -17 8 -23 19 -6 11 -16 20 -23 20 -7 0 -28 11 -47 25 -29
21 -31 25 -13 25 11 0 26 -7 33 -15 7 -8 17 -15 23 -15 19 0 121 -74 181 -132
34 -32 63 -53 65 -47 1 5 -4 18 -13 28 -16 17 -15 18 11 13 33 -6 73 -30 73
-44 0 -13 42 -47 59 -48 7 0 -3 15 -23 33 -20 18 -36 38 -36 44 0 21 -26 59
-37 56 -7 -3 -9 4 -6 17 l6 21 21 -20 c34 -32 38 -25 11 16 -14 20 -23 38 -20
41 3 3 -5 10 -18 16 -17 9 -21 19 -19 41 l4 30 -22 -23 -22 -23 26 -26 c14
-14 26 -33 26 -42 0 -11 -5 -8 -17 9 -9 14 -18 27 -19 29 -2 2 -11 -2 -19 -9
-14 -12 -15 -10 -10 13 9 34 -2 52 -21 36 -8 -6 -14 -8 -15 -3 0 5 -2 23 -4
39 l-4 30 22 -27 c28 -35 47 -36 47 -3 0 14 5 25 11 25 14 0 69 -61 64 -71 -3
-4 2 -13 11 -20 14 -11 16 -10 12 11 -1 14 -5 27 -8 30 -3 3 -13 19 -22 35
-10 17 -24 29 -32 29 -8 -1 -12 4 -9 12 4 11 11 9 35 -7 16 -12 31 -19 33 -17
8 8 -20 58 -32 58 -7 0 -13 7 -13 15 0 9 -6 12 -15 9 -16 -7 -21 11 -6 20 5 4
25 -12 44 -34 l34 -41 13 31 c10 24 15 28 26 19 20 -17 17 -2 -6 29 -12 16
-17 35 -14 48 5 19 9 20 30 10 13 -6 29 -26 35 -45z m119 9 l22 -45 -26 30
c-14 17 -25 39 -26 49 0 24 3 21 30 -34z m150 46 c0 -3 -4 -8 -10 -11 -5 -3
-10 -1 -10 4 0 6 5 11 10 11 6 0 10 -2 10 -4z m225 -5 c3 -5 1 -12 -5 -16 -5
-3 -10 1 -10 9 0 18 6 21 15 7z m1405 -25 c14 -18 14 -19 -8 -7 -12 7 -20 17
-16 22 3 6 7 9 8 7 1 -2 8 -12 16 -22z m-1655 -6 c-3 -5 -10 -10 -16 -10 -5 0
-9 5 -9 10 0 6 7 10 16 10 8 0 12 -4 9 -10z m169 -26 c9 -24 2 -26 -12 -4 -7
11 -8 20 -3 20 5 0 12 -7 15 -16z m233 -6 c-3 -8 -6 -5 -6 6 -1 11 2 17 5 13
3 -3 4 -12 1 -19z m-277 -8 c0 -11 -7 -20 -15 -20 -27 0 -18 30 13 39 1 1 2
-8 2 -19z m27 -32 c-3 -7 -5 -2 -5 12 0 14 2 19 5 13 2 -7 2 -19 0 -25z m480
0 c-3 -8 -6 -5 -6 6 -1 11 2 17 5 13 3 -3 4 -12 1 -19z m-766 -5 c13 -15 12
-15 -8 -4 -24 12 -29 21 -14 21 5 0 15 -7 22 -17z m109 -46 c0 -20 -9 -17 -47
17 -33 28 -28 36 12 17 20 -9 34 -23 35 -34z m-530 28 c0 -8 -2 -15 -4 -15 -2
0 -6 7 -10 15 -3 8 -1 15 4 15 6 0 10 -7 10 -15z m459 -36 c20 -27 21 -29 2
-18 -11 7 -22 21 -24 31 -7 24 -4 23 22 -13z m558 -1 c-3 -8 -6 -5 -6 6 -1 11
2 17 5 13 3 -3 4 -12 1 -19z m3573 -11 c0 -18 -2 -19 -10 -7 -13 20 -13 43 0
35 6 -3 10 -16 10 -28z m-4480 14 c0 -12 -20 -25 -27 -18 -7 7 6 27 18 27 5 0
9 -4 9 -9z m4587 -13 c-3 -8 -6 -5 -6 6 -1 11 2 17 5 13 3 -3 4 -12 1 -19z
m-3530 -10 c-3 -8 -6 -5 -6 6 -1 11 2 17 5 13 3 -3 4 -12 1 -19z m-139 -10
c14 -14 16 -28 2 -28 -5 0 -14 9 -20 20 -12 22 -1 27 18 8z m-1231 -31 c4 -7
0 -8 -11 -4 -10 4 -26 7 -37 7 -10 0 -19 4 -19 8 0 12 59 2 67 -11z m4993 7
c0 -8 -5 -12 -10 -9 -6 4 -8 11 -5 16 9 14 15 11 15 -7z m-4820 -13 c0 -4 -6
-16 -14 -26 -13 -18 -14 -18 -26 4 -8 15 -8 21 -1 17 6 -4 14 0 17 8 6 15 24
13 24 -3z m940 -3 c0 -18 -2 -20 -9 -8 -6 8 -7 18 -5 22 9 14 14 9 14 -14z
m55 12 c-3 -5 -1 -26 4 -46 6 -22 7 -44 1 -53 -9 -17 -12 -9 -25 72 -5 30 -3
37 10 37 9 0 13 -4 10 -10z m199 -5 c-4 -8 -8 -15 -10 -15 -2 0 -4 7 -4 15 0
8 4 15 10 15 5 0 7 -7 4 -15z m-664 -11 c0 -8 -4 -12 -10 -9 -5 3 -10 10 -10
16 0 5 5 9 10 9 6 0 10 -7 10 -16z m334 -17 c-3 -137 -4 -146 -19 -141 -9 4
-14 18 -13 37 0 18 -3 48 -7 67 -7 30 -6 33 8 22 10 -9 17 -10 22 -2 3 5 2 10
-3 10 -5 0 -12 9 -15 21 -4 15 -1 19 11 17 11 -2 17 -13 16 -31z m194 -26 c3
-45 0 -56 -18 -68 -11 -8 -17 -19 -14 -25 4 -6 1 -9 -5 -7 -7 3 -12 8 -12 12
1 4 1 19 1 33 0 16 4 23 11 18 8 -4 9 9 6 45 -4 44 -2 52 12 49 12 -2 17 -17
19 -57z m3572 39 c0 -5 -2 -10 -4 -10 -3 0 -8 5 -11 10 -3 6 -1 10 4 10 6 0
11 -4 11 -10z m-4580 -42 c0 -30 -1 -31 -19 -14 -16 14 -17 21 -8 32 19 21 27
16 27 -18z m-312 -3 c-3 -3 -9 2 -12 12 -6 14 -5 15 5 6 7 -7 10 -15 7 -18z
m384 -29 c23 -26 29 -29 38 -16 8 13 10 13 10 -1 0 -9 -8 -24 -19 -33 -16 -15
-19 -15 -24 -2 -4 9 -12 13 -20 10 -8 -3 -14 2 -14 11 0 8 4 15 9 15 16 0 8
24 -15 45 -13 11 -16 16 -7 11 8 -5 27 -23 42 -40z m808 25 c0 -15 3 -50 6
-77 6 -41 4 -47 -7 -36 -15 13 -21 142 -7 142 4 0 8 -13 8 -29z m242 -23 c-7
-7 -12 -8 -12 -2 0 14 12 26 19 19 2 -3 -1 -11 -7 -17z m-1377 2 c3 -5 1 -10
-4 -10 -6 0 -11 5 -11 10 0 6 2 10 4 10 3 0 8 -4 11 -10z m116 -33 c-13 -13
-15 1 -4 30 7 17 8 17 11 -1 2 -10 -1 -23 -7 -29z m-52 2 c40 -14 52 -37 35
-69 -8 -14 -14 -19 -14 -12 0 19 -28 14 -33 -5 -4 -14 -5 -12 -6 5 -1 17 4 22
24 22 17 0 23 4 19 15 -4 8 -10 13 -15 10 -9 -6 -49 25 -49 37 0 10 1 10 39
-3z m101 -26 c0 -15 -3 -23 -7 -19 -11 10 -11 56 -1 50 4 -3 8 -17 8 -31z
m-135 -30 c-2 -10 -4 -29 -5 -43 l-1 -25 -14 25 c-12 22 -12 26 3 32 9 4 13 7
9 7 -5 1 -5 6 -2 11 9 15 14 12 10 -7z m187 -63 c10 -11 18 -24 18 -29 0 -5 7
-17 16 -25 14 -15 14 -16 -1 -16 -8 0 -20 11 -25 25 -11 28 -15 30 -34 13 -10
-10 -6 -19 22 -45 19 -18 38 -31 41 -28 4 5 30 -46 54 -105 1 -3 -6 -6 -15 -8
-14 -3 -19 6 -24 37 -7 43 -21 61 -51 65 -10 2 -21 14 -24 27 -5 16 -7 18 -8
7 -1 -22 -14 -23 -31 -3 -7 8 -22 15 -34 15 -16 0 -18 2 -7 9 20 13 6 42 -15
34 -12 -4 -15 -3 -10 5 4 7 2 12 -3 12 -6 0 -11 -4 -11 -10 0 -5 -5 -10 -11
-10 -5 0 -7 5 -4 10 3 6 1 10 -6 10 -7 0 -4 6 7 14 10 8 20 11 22 6 4 -11 32
-1 50 16 8 8 9 15 2 19 -5 3 -10 10 -10 15 0 11 67 -33 92 -60z m-334 -12 c24
-24 14 -37 -18 -22 -16 9 -30 20 -30 25 0 13 34 11 48 -3z m927 -29 c21 -39
11 -50 -17 -21 -15 14 -18 22 -9 22 11 0 11 3 1 15 -8 10 -9 15 -1 15 6 0 18
-14 26 -31z m-855 2 c0 -11 -4 -23 -10 -26 -5 -3 -10 -1 -10 5 0 6 -4 8 -10 5
-12 -7 -12 -3 -4 19 9 23 34 20 34 -3z m54 -16 c3 -8 16 -15 30 -15 32 0 38
-11 25 -48 -7 -21 -15 -29 -26 -25 -11 4 -11 8 -3 13 9 6 9 9 0 15 -6 4 -9 13
-6 21 3 9 -2 14 -14 14 -11 0 -20 -6 -21 -12 -1 -15 -17 21 -18 40 -1 17 26
15 33 -3z m-169 -15 c3 -5 1 -10 -4 -10 -6 0 -11 5 -11 10 0 6 2 10 4 10 3 0
8 -4 11 -10z m39 -18 c8 -13 -5 -52 -15 -46 -12 7 -12 54 0 54 6 0 12 -4 15
-8z m249 -18 c30 -15 67 -47 67 -58 0 -2 -11 -3 -25 -2 -18 1 -28 8 -32 24 -6
24 -19 29 -26 10 -5 -16 -13 -10 -21 20 -9 26 -5 27 37 6z m707 6 c0 -5 -2
-10 -4 -10 -3 0 -8 5 -11 10 -3 6 -1 10 4 10 6 0 11 -4 11 -10z m-900 -37 c0
-32 -5 -28 -14 10 -4 19 -3 26 4 22 5 -3 10 -18 10 -32z m62 5 c-11 -11 -32
-3 -32 12 0 4 9 6 21 3 13 -4 17 -9 11 -15z m248 -24 c0 -8 -4 -12 -10 -9 -5
3 -10 13 -10 21 0 8 5 12 10 9 6 -3 10 -13 10 -21z m-255 -4 c3 -5 3 -15 -1
-21 -6 -11 -23 6 -24 24 0 10 18 9 25 -3z m115 -20 c0 -10 -4 -21 -9 -25 -15
-8 -24 14 -12 29 6 7 7 17 3 21 -4 5 -1 5 6 1 6 -4 12 -16 12 -26z m-70 -6 c0
-8 -5 -12 -10 -9 -6 4 -8 11 -5 16 9 14 15 11 15 -7z m200 -20 c0 -8 -4 -14
-10 -14 -5 0 -10 4 -10 9 0 5 -3 18 -7 28 -6 16 -5 16 10 4 9 -7 17 -20 17
-27z m-100 -41 c0 -39 -2 -44 -15 -33 -17 14 -20 40 -5 40 6 0 8 11 4 26 -5
19 -4 25 5 20 6 -4 11 -28 11 -53z m50 35 c0 -19 -2 -20 -10 -8 -13 19 -13 30
0 30 6 0 10 -10 10 -22z m-155 -15 c-4 -10 -10 -26 -12 -36 -6 -19 -24 -18
-31 1 -2 7 2 11 10 10 8 -2 13 6 12 20 0 13 5 22 14 22 10 0 12 -6 7 -17z m53
-14 c19 -31 4 -38 -18 -9 -11 14 -20 28 -20 32 0 13 25 -2 38 -23z m322 1 c0
-5 -5 -10 -11 -10 -5 0 -7 5 -4 10 3 6 8 10 11 10 2 0 4 -4 4 -10z m-210 -47
c17 -20 12 -52 -7 -48 -10 2 -20 4 -23 4 -3 1 -5 21 -5 46 0 39 2 43 12 28 7
-10 17 -23 23 -30z m170 37 c0 -5 -5 -10 -11 -10 -5 0 -7 5 -4 10 3 6 8 10 11
10 2 0 4 -4 4 -10z m2037 4 c-3 -3 -12 -4 -19 -1 -8 3 -5 6 6 6 11 1 17 -2 13
-5z m-2136 -45 c-9 -22 -10 -22 -10 -3 -1 11 2 24 6 27 12 12 14 0 4 -24z m88
4 c2 -2 -3 -3 -11 -3 -9 0 -19 7 -22 16 -6 15 -4 15 11 3 10 -7 20 -15 22 -16z
m71 12 c0 -8 -7 -15 -15 -15 -8 0 -15 7 -15 15 0 8 7 15 15 15 8 0 15 -7 15
-15z m-625 -5 c3 -5 1 -10 -4 -10 -6 0 -11 5 -11 10 0 6 2 10 4 10 3 0 8 -4
11 -10z m273 -36 c-3 -14 -5 -12 -10 9 -3 19 -2 25 4 19 6 -6 8 -18 6 -28z
m372 -16 c0 -15 43 -78 53 -78 4 0 5 11 1 25 -3 14 -2 25 3 25 5 0 10 -17 11
-37 2 -21 5 -47 8 -58 4 -16 3 -17 -5 -5 -8 12 -13 7 -26 -23 -9 -21 -20 -35
-25 -32 -13 8 -13 35 1 35 6 0 9 7 7 16 -3 15 -17 20 -19 7 -1 -5 -5 -18 -10
-30 -6 -16 -4 -27 6 -37 8 -8 15 -22 15 -31 0 -10 4 -13 12 -8 7 4 25 6 40 4
34 -3 40 9 23 42 -9 18 -11 41 -7 73 7 47 7 47 50 49 l42 3 -1 -42 -2 -41 -6
35 c-4 24 -9 31 -15 22 -4 -7 -5 -24 -2 -38 4 -13 3 -24 -1 -23 -5 1 -19 1
-33 0 l-25 -2 24 -13 c20 -11 21 -14 7 -19 -18 -7 -13 -54 8 -72 7 -5 15 -18
19 -28 4 -10 12 -17 19 -15 19 7 18 42 -3 61 -10 10 -19 13 -19 7 0 -18 -17
-11 -23 9 -3 13 1 21 14 24 13 4 17 10 13 22 -6 15 -4 15 14 4 18 -11 19 -15
7 -22 -9 -4 -13 -13 -9 -19 4 -6 10 -5 15 3 8 12 11 11 19 -1 5 -8 6 -16 1
-18 -4 -1 -6 -14 -3 -27 2 -14 -1 -32 -8 -40 -7 -8 -10 -21 -7 -29 9 -23 -5
-27 -20 -6 -8 11 -23 20 -34 20 -11 0 -22 7 -25 15 -7 18 -51 20 -56 3 -2 -6
-10 -8 -17 -4 -9 6 -9 11 0 22 9 11 8 14 -5 14 -9 0 -15 -5 -13 -11 3 -17 -34
-37 -40 -21 -6 16 -23 15 -23 -2 0 -14 -29 -30 -38 -21 -3 3 7 18 21 33 15 16
27 36 27 45 0 9 5 17 10 17 6 0 10 -5 10 -11 0 -8 4 -8 14 0 12 10 12 16 -2
42 -9 16 -23 29 -30 29 -8 0 -12 9 -10 23 2 12 9 21 16 20 8 -2 10 10 5 43 -4
34 -2 49 8 56 11 7 11 11 1 15 -6 2 -10 9 -6 14 7 11 24 2 24 -13z m-583 -10
c-3 -8 -6 -5 -6 6 -1 11 2 17 5 13 3 -3 4 -12 1 -19z m263 0 c0 -6 -6 -5 -15
2 -8 7 -15 14 -15 16 0 2 7 1 15 -2 8 -4 15 -11 15 -16z m-200 -8 c0 -5 -2
-10 -4 -10 -3 0 -8 5 -11 10 -3 6 -1 10 4 10 6 0 11 -4 11 -10z m426 -27 c-4
-4 -11 -1 -16 7 -16 25 -11 35 7 17 9 -9 13 -20 9 -24z m-276 7 c0 -11 -2 -20
-4 -20 -2 0 -6 9 -9 20 -3 11 -1 20 4 20 5 0 9 -9 9 -20z m317 -2 c-3 -8 -6
-5 -6 6 -1 11 2 17 5 13 3 -3 4 -12 1 -19z m203 1 c0 -5 -7 -9 -15 -9 -8 0
-15 7 -15 15 0 9 6 12 15 9 8 -4 15 -10 15 -15z m-616 5 c9 -3 16 -13 16 -21
0 -20 -33 -12 -36 10 -3 19 -2 19 20 11z m43 -56 c-3 -8 -6 -5 -6 6 -1 11 2
17 5 13 3 -3 4 -12 1 -19z m373 13 c0 -5 -7 -11 -14 -14 -10 -4 -13 -1 -9 9 6
15 23 19 23 5z m247 -23 c-3 -7 -5 -2 -5 12 0 14 2 19 5 13 2 -7 2 -19 0 -25z
m-507 13 c0 -6 -4 -12 -8 -15 -5 -3 -9 1 -9 9 0 8 4 15 9 15 4 0 8 -4 8 -9z
m-70 -43 c0 -17 -3 -28 -7 -24 -11 11 -12 67 -2 60 5 -3 9 -19 9 -36z m-153
-20 c-3 -8 -6 -5 -6 6 -1 11 2 17 5 13 3 -3 4 -12 1 -19z m197 -4 c9 -24 7
-28 -9 -14 -17 14 -20 30 -6 30 5 0 12 -7 15 -16z m-134 -16 c0 -19 -2 -20
-10 -8 -13 19 -13 30 0 30 6 0 10 -10 10 -22z m544 -4 c8 -22 8 -26 -3 -19 -5
3 -12 1 -16 -5 -3 -5 -12 -10 -18 -10 -7 0 -4 5 5 11 10 5 15 16 12 24 -4 8
-2 15 4 15 5 0 13 -7 16 -16z m-494 -48 c0 -19 -24 14 -27 36 -3 22 -2 22 12
-2 8 -14 14 -29 15 -34z m-163 22 c-3 -8 -6 -5 -6 6 -1 11 2 17 5 13 3 -3 4
-12 1 -19z m313 12 c0 -5 -5 -10 -11 -10 -5 0 -7 5 -4 10 3 6 8 10 11 10 2 0
4 -4 4 -10z m-246 -17 c3 -10 9 -24 12 -30 3 -8 -1 -13 -9 -13 -8 0 -20 14
-26 30 -8 24 -7 30 3 30 8 0 16 -8 20 -17z m193 -5 c-3 -8 -6 -5 -6 6 -1 11 2
17 5 13 3 -3 4 -12 1 -19z m273 16 c0 -11 -52 -55 -58 -50 -3 3 6 17 19 30 24
24 39 31 39 20z m-335 -24 c3 -5 1 -10 -4 -10 -6 0 -11 5 -11 10 0 6 2 10 4
10 3 0 8 -4 11 -10z m-10 -78 c-9 -9 -25 19 -24 43 0 16 2 15 15 -8 9 -16 13
-32 9 -35z m-45 40 c0 -5 -7 -9 -15 -9 -8 0 -12 4 -9 9 3 4 9 8 15 8 5 0 9 -4
9 -8z m67 -14 c-3 -8 -6 -5 -6 6 -1 11 2 17 5 13 3 -3 4 -12 1 -19z m38 -16
c-3 -3 -11 0 -18 7 -9 10 -8 11 6 5 10 -3 15 -9 12 -12z m-231 -7 c3 -8 1 -15
-3 -15 -5 0 -11 7 -15 15 -3 8 -1 15 3 15 5 0 11 -7 15 -15z m60 -11 c4 -10 1
-14 -6 -12 -15 5 -23 28 -10 28 5 0 13 -7 16 -16z m-129 -14 c3 -5 -4 -6 -14
-3 -16 4 -19 1 -14 -18 4 -15 3 -20 -5 -15 -7 4 -12 18 -12 31 0 18 4 22 20
18 11 -3 22 -9 25 -13z m185 -21 c0 -14 -16 -11 -29 5 -10 12 -8 13 8 9 12 -3
21 -9 21 -14z m-277 -9 c3 -11 1 -18 -4 -14 -5 3 -9 12 -9 20 0 20 7 17 13 -6z
m182 -27 c10 -35 -12 -27 -24 8 -6 18 -11 35 -11 38 0 12 28 -26 35 -46z m174
-65 c0 -9 -2 -8 -6 2 -3 8 -14 26 -24 39 -11 13 -19 29 -19 35 0 6 11 -6 25
-26 14 -20 25 -43 24 -50z m-118 40 c8 -15 8 -18 0 -14 -6 4 -16 16 -22 28 -8
15 -8 18 0 14 6 -4 16 -16 22 -28z m-145 -43 c4 -21 3 -27 -4 -20 -6 6 -14 24
-18 40 -4 21 -3 27 4 20 6 -5 14 -23 18 -40z m720 32 c6 -17 -39 -213 -66
-285 -11 -29 -20 -66 -20 -83 0 -28 -13 -89 -45 -219 -8 -30 -35 -120 -60
-200 -61 -193 -82 -303 -95 -495 -37 -547 -63 -737 -155 -1120 -13 -55 -27
-131 -31 -170 -8 -82 -11 -90 -30 -74 -8 6 -14 8 -14 5 0 -4 -6 -2 -12 4 -7 6
-22 17 -33 25 -19 14 -19 14 6 15 19 0 26 5 25 18 0 9 -7 21 -13 25 -20 12
-15 27 8 27 11 0 19 5 17 11 -2 6 -8 11 -13 11 -6 0 -16 5 -23 11 -11 9 -11
13 3 23 9 7 15 17 12 22 -4 4 3 16 14 25 28 24 24 40 -18 70 -36 26 -37 27
-13 28 14 1 28 1 32 0 10 -1 30 68 24 84 -3 8 -18 15 -33 16 l-28 1 32 14 c34
15 34 10 34 194 1 68 -1 78 -9 58 -5 -13 -11 -15 -22 -8 -8 5 -10 10 -3 10 6
0 16 14 22 31 14 41 14 46 -1 31 -7 -7 -19 -12 -27 -12 -11 0 -11 3 4 13 11 9
15 19 10 27 -6 9 -4 11 5 5 17 -11 31 15 19 37 -5 9 -15 16 -22 14 -6 -1 -9
-1 -5 1 4 2 5 10 2 18 -3 7 -1 16 4 19 13 8 4 44 -12 49 -6 2 -1 2 12 0 24 -4
25 0 16 35 -4 13 -14 22 -26 22 -19 0 -19 1 2 18 24 19 20 48 -6 38 -8 -3 -11
0 -7 10 3 8 12 13 19 10 8 -3 14 -4 14 -2 0 3 3 11 6 20 4 11 0 16 -12 17 -16
0 -15 2 4 9 21 9 31 30 13 30 -5 0 -11 7 -14 14 -4 10 -1 13 9 9 31 -12 8 23
-31 45 -19 11 -19 11 3 12 28 0 52 44 34 62 -16 16 -15 29 1 25 16 -3 21 47 7
74 -8 15 -9 19 -1 15 7 -4 11 1 11 13 0 13 -7 21 -17 22 -16 1 -16 2 -1 6 19
5 35 48 30 81 -3 18 -8 22 -25 16 -21 -6 -21 -5 -4 8 14 11 19 29 20 76 1 34
4 62 7 62 3 0 5 40 6 90 l1 89 -41 -24 c-84 -49 -291 -98 -365 -87 -49 7 -37
29 39 67 210 106 364 245 460 418 20 36 27 57 19 55 -10 -2 -14 7 -14 30 -1
34 18 43 32 17 7 -11 15 0 35 43 15 31 29 68 31 82 15 80 43 146 71 169 44 36
181 56 192 28z m-617 -71 c-3 -3 -11 5 -18 17 -13 21 -12 21 5 5 10 -10 16
-20 13 -22z m91 -10 c0 -3 -4 -8 -10 -11 -5 -3 -10 -1 -10 4 0 6 5 11 10 11 6
0 10 -2 10 -4z m-156 -172 c3 -8 2 -12 -4 -9 -6 3 -10 10 -10 16 0 14 7 11 14
-7z m5503 -350 c-3 -3 -12 -4 -19 -1 -8 3 -5 6 6 6 11 1 17 -2 13 -5z m42 -75
c11 -19 11 -21 -4 -15 -9 3 -19 6 -21 6 -2 0 -4 7 -4 15 0 21 13 19 29 -6z
m-5382 -335 c-3 -3 -12 -4 -19 -1 -8 3 -5 6 6 6 11 1 17 -2 13 -5z m5386 -23
c3 -13 1 -18 -9 -14 -7 2 -10 11 -7 19 7 19 10 18 16 -5z m-5343 -141 c0 -5
-2 -10 -4 -10 -3 0 -8 5 -11 10 -3 6 -1 10 4 10 6 0 11 -4 11 -10z m-10 -130
c0 -5 -5 -10 -11 -10 -5 0 -7 5 -4 10 3 6 8 10 11 10 2 0 4 -4 4 -10z m-10
-24 c0 -2 -7 -6 -15 -10 -8 -3 -15 -1 -15 4 0 6 7 10 15 10 8 0 15 -2 15 -4z
m-33 -202 c-3 -3 -12 -4 -19 -1 -8 3 -5 6 6 6 11 1 17 -2 13 -5z m-17 -284 c0
-5 -8 -10 -17 -10 -15 0 -16 2 -3 10 19 12 20 12 20 0z m37 -280 c1 -15 -4
-20 -23 -20 -23 0 -23 1 -7 20 10 11 20 20 23 20 3 0 6 -9 7 -20z m-17 -74 c0
-3 -4 -8 -10 -11 -5 -3 -10 -1 -10 4 0 6 5 11 10 11 6 0 10 -2 10 -4z m5 -86
c3 -5 1 -10 -4 -10 -6 0 -11 5 -11 10 0 6 2 10 4 10 3 0 8 -4 11 -10z m445
-85 c0 -8 -4 -15 -10 -15 -5 0 -10 7 -10 15 0 8 5 15 10 15 6 0 10 -7 10 -15z
m161 -12 c13 -16 12 -17 -3 -4 -10 7 -18 15 -18 17 0 8 8 3 21 -13z m-14 -45
c-3 -7 -5 -2 -5 12 0 14 2 19 5 13 2 -7 2 -19 0 -25z m-597 4 c0 -5 -7 -9 -15
-9 -8 0 -15 4 -15 9 0 4 7 8 15 8 8 0 15 -4 15 -8z m500 -43 c0 -6 -4 -7 -10
-4 -5 3 -10 11 -10 16 0 6 5 7 10 4 6 -3 10 -11 10 -16z m116 6 c4 -8 3 -32
-2 -53 l-7 -37 -7 30 c-11 46 -11 75 0 75 6 0 13 -7 16 -15z m-158 -12 c4 3
14 -4 21 -15 12 -20 12 -21 -24 -15 -45 7 -49 11 -41 33 5 13 9 14 21 4 8 -6
18 -9 23 -7z m-30 -50 c-2 -10 -10 -18 -18 -18 -8 0 -16 8 -18 18 -2 12 3 17
18 17 15 0 20 -5 18 -17z m130 -18 c-3 -3 -9 2 -12 12 -6 14 -5 15 5 6 7 -7
10 -15 7 -18z m-568 -160 c-7 -8 -19 -15 -26 -15 -8 0 -11 6 -8 15 4 8 15 15
26 15 17 0 18 -3 8 -15z m30 -25 c0 -12 -7 -20 -17 -21 -14 0 -13 -3 5 -11 24
-12 24 -36 1 -29 -8 2 -25 4 -39 4 -15 -1 -18 1 -7 4 34 9 17 29 -22 24 -29
-5 1 17 34 23 19 4 35 11 35 16 0 6 2 10 5 10 3 0 5 -9 5 -20z m650 -20 c0 -5
-2 -10 -4 -10 -3 0 -8 5 -11 10 -3 6 -1 10 4 10 6 0 11 -4 11 -10z m-660 -69
c0 -16 -24 -18 -65 -6 l-40 13 53 1 c28 1 52 -3 52 -8z m-53 -27 c-3 -3 -12
-4 -19 -1 -8 3 -5 6 6 6 11 1 17 -2 13 -5z m61 -16 c7 -7 12 -19 11 -27 0 -11
-2 -12 -6 -4 -3 8 -14 11 -29 7 -15 -4 -24 -2 -24 5 0 6 -10 12 -22 12 -15 1
-11 4 12 9 19 4 37 8 41 9 3 0 10 -4 17 -11z m-63 -38 c3 -5 16 -10 28 -10 17
0 19 -2 8 -9 -14 -9 -71 11 -71 24 0 9 29 5 35 -5z m695 -210 c0 -5 -2 -10 -4
-10 -3 0 -8 5 -11 10 -3 6 -1 10 4 10 6 0 11 -4 11 -10z m-73 -32 c-3 -8 -6
-5 -6 6 -1 11 2 17 5 13 3 -3 4 -12 1 -19z m33 -88 c6 -11 7 -20 2 -20 -6 0
-12 9 -15 20 -3 11 -3 20 -1 20 2 0 8 -9 14 -20z m-50 -50 c0 -5 -2 -10 -4
-10 -3 0 -8 5 -11 10 -3 6 -1 10 4 10 6 0 11 -4 11 -10z m0 -30 c0 -5 -4 -10
-10 -10 -5 0 -10 5 -10 10 0 6 5 10 10 10 6 0 10 -4 10 -10z m-123 -6 c-3 -3
-12 -4 -19 -1 -8 3 -5 6 6 6 11 1 17 -2 13 -5z m160 -39 c-15 -16 -22 -11 -13
10 3 9 10 13 16 10 6 -4 5 -11 -3 -20z m-275 -7 c-1 -9 5 -19 15 -21 14 -4 13
-5 -4 -6 -21 -1 -25 4 -22 26 0 4 -8 11 -18 15 -14 6 -13 7 7 5 17 -1 24 -7
22 -19z m58 -8 c0 -5 -4 -10 -9 -10 -6 0 -13 5 -16 10 -3 6 1 10 9 10 9 0 16
-4 16 -10z m5450 -32 c0 -4 -15 0 -34 10 -19 9 -32 20 -29 25 5 8 63 -23 63
-35z m-16 -27 c-2 -3 -12 3 -22 13 -16 17 -16 18 5 5 12 -7 20 -15 17 -18z
m66 -1 c0 -9 -19 -24 -24 -19 -2 2 -7 15 -11 27 -6 22 -5 23 14 13 12 -7 21
-16 21 -21z m-1895 -30 c3 -5 2 -10 -4 -10 -5 0 -13 5 -16 10 -3 6 -2 10 4 10
5 0 13 -4 16 -10z m55 -20 c0 -5 -4 -10 -10 -10 -5 0 -10 5 -10 10 0 6 5 10
10 10 6 0 10 -4 10 -10z m-183 -26 c-3 -3 -12 -4 -19 -1 -8 3 -5 6 6 6 11 1
17 -2 13 -5z m-1117 -24 c0 -5 -7 -10 -15 -10 -8 0 -15 5 -15 10 0 6 7 10 15
10 8 0 15 -4 15 -10z m3000 -15 c13 -14 21 -25 18 -25 -2 0 -15 11 -28 25 -13
14 -21 25 -18 25 2 0 15 -11 28 -25z m-3130 -5 c0 -5 -4 -10 -9 -10 -6 0 -13
5 -16 10 -3 6 1 10 9 10 9 0 16 -4 16 -10z m3190 -4 c0 5 20 -21 45 -58 37
-55 43 -71 36 -90 -9 -22 -10 -21 -10 8 -1 17 -8 37 -16 44 -8 7 -15 18 -15
25 0 7 -16 27 -35 44 -33 29 -51 57 -20 31 8 -7 15 -9 15 -4z m-5905 -23 c19
-9 35 -19 35 -22 0 -12 -42 -32 -73 -36 -30 -4 -31 -3 -12 11 19 15 19 16 1
29 -17 13 -15 35 4 35 5 0 25 -8 45 -17z m3830 -1 c-3 -3 -11 0 -18 7 -9 10
-8 11 6 5 10 -3 15 -9 12 -12z m-1145 -34 c0 -18 -1 -18 -16 -4 -8 9 -20 16
-26 16 -6 0 -6 6 2 15 16 19 40 2 40 -27z m1428 36 c12 -4 22 -13 22 -22 0
-12 -3 -13 -12 -4 -7 7 -21 12 -32 12 -12 0 -28 5 -36 10 -12 8 -10 10 10 10
14 0 35 -3 48 -6z m1772 -30 c16 -10 18 -13 6 -9 -19 6 -19 5 -2 -14 10 -11
22 -18 26 -16 10 6 22 -24 15 -35 -3 -4 2 -10 10 -14 8 -3 15 -13 15 -23 0
-15 -2 -16 -10 -3 -5 8 -10 10 -10 3 0 -6 -13 1 -28 15 -16 15 -41 28 -55 28
-30 2 -61 29 -52 45 4 6 18 8 32 4 22 -5 25 -3 20 14 -6 25 -1 26 33 5z
m-3578 -14 c10 0 18 -4 18 -10 0 -5 7 -10 15 -10 20 0 19 -17 -1 -28 -11 -6
-13 -11 -5 -16 6 -4 11 -2 11 3 0 6 7 11 15 11 9 0 19 10 24 22 4 12 10 17 14
12 3 -6 -4 -21 -17 -35 -12 -13 -26 -33 -30 -44 -7 -18 -10 -16 -27 18 -19 36
-31 42 -77 38 -15 -1 -21 2 -17 8 3 6 13 11 21 11 8 0 14 10 14 22 0 17 3 19
12 10 7 -7 20 -12 30 -12z m1260 11 c-7 -4 -14 -20 -16 -34 -3 -30 -16 -49
-16 -24 0 27 19 67 32 67 10 0 10 -2 0 -9z m2208 -1 c21 -11 17 -35 -7 -44
-11 -5 -13 -2 -9 10 4 9 1 23 -5 30 -14 17 -5 18 21 4z m-5665 -20 c3 -5 14
-10 23 -10 27 0 40 -13 48 -45 7 -30 7 -30 -13 -12 -18 15 -33 17 -102 13 -44
-2 -85 -7 -91 -11 -14 -9 -13 8 3 27 33 41 115 65 132 38z m-200 -10 c-3 -5
-12 -10 -18 -10 -7 0 -6 4 3 10 19 12 23 12 15 0z m2555 -1 c0 -15 -18 -19
-23 -6 -3 8 1 14 9 14 8 0 14 -4 14 -8z m1050 -9 c0 -5 -7 -10 -16 -10 -8 0
-12 5 -9 10 3 6 10 10 16 10 5 0 9 -4 9 -10z m2085 -10 c3 -5 -1 -10 -10 -10
-9 0 -13 5 -10 10 3 6 8 10 10 10 2 0 7 -4 10 -10z m-5710 -20 c3 -5 1 -10 -4
-10 -6 0 -11 5 -11 10 0 6 2 10 4 10 3 0 8 -4 11 -10z m5765 -2 c0 -7 3 -23 6
-35 4 -13 2 -23 -2 -23 -12 0 -44 57 -36 64 10 11 32 6 32 -6z m-3064 -20 c15
-7 34 -24 43 -37 15 -24 15 -24 -7 -19 -19 5 -21 4 -12 -7 7 -8 9 -19 5 -25
-9 -14 -26 -13 -22 3 1 7 -7 11 -21 10 -13 -2 -21 0 -19 5 3 4 -16 6 -41 4
-35 -2 -43 0 -32 7 12 9 11 11 -8 11 -13 0 -32 -5 -44 -11 -27 -15 -34 -4 -21
32 11 28 10 29 -5 17 -13 -11 -14 -11 -8 1 5 8 3 16 -5 22 -22 13 168 1 197
-13z m898 1 c-8 -13 10 -11 24 3 7 7 12 9 12 4 0 -4 -7 -14 -15 -23 -14 -13
-18 -13 -40 1 -32 21 -32 35 0 28 14 -2 22 -8 19 -13z m-66 -28 c2 -18 -2 -39
-9 -45 -9 -8 -10 -8 -5 1 4 8 -8 14 -39 18 -33 5 -45 12 -45 24 0 28 23 42 60
39 32 -3 35 -6 38 -37z m284 28 c39 -20 53 -55 19 -46 -17 4 -16 1 5 -31 26
-37 33 -70 9 -38 -8 11 -15 23 -15 28 0 4 -7 5 -15 2 -11 -5 -13 -2 -8 11 5
15 2 17 -14 13 -12 -3 -44 -1 -72 4 -33 6 -57 5 -70 -1 -24 -13 -37 12 -15 29
8 7 14 18 14 25 0 16 132 20 162 4z m2144 -14 c-13 -14 -28 -25 -35 -25 -6 0
-11 -4 -11 -10 0 -5 -7 -10 -15 -10 -17 0 -40 -38 -29 -48 4 -4 9 -1 11 6 5
14 43 17 43 3 0 -5 6 -8 13 -7 6 0 12 -3 12 -9 0 -13 -68 -10 -104 5 -19 7
-28 17 -24 26 3 8 -1 14 -8 14 -12 0 -12 2 -1 9 8 4 12 14 10 22 -1 8 2 14 7
14 6 0 10 -10 10 -22 -1 -13 3 -23 7 -23 4 0 8 5 8 12 0 7 10 21 23 33 13 11
17 16 10 11 -8 -5 -13 -5 -13 1 0 18 13 23 61 23 l48 0 -23 -25z m-1802 -59
c21 -33 11 -58 -23 -55 -14 1 -38 -4 -53 -11 -28 -13 -58 -8 -58 10 0 5 5 10
10 10 6 0 10 8 10 19 0 47 87 68 114 27z m-1090 -16 c32 -39 25 -61 -20 -58
-19 1 -39 -3 -46 -10 -7 -7 -20 -12 -30 -12 -14 0 -18 8 -18 39 0 71 68 95
114 41z m2726 9 c0 -5 -12 -9 -26 -9 -22 0 -24 2 -14 14 12 15 40 11 40 -5z
m265 0 c9 -13 6 -16 -28 -24 -23 -6 -27 -4 -27 14 0 16 6 21 24 21 14 0 28 -5
31 -11z m-2283 -40 c16 -1 18 -3 6 -6 -9 -2 -26 1 -37 7 -23 12 -28 1 -9 -18
9 -9 9 -12 0 -12 -7 0 -12 5 -12 11 0 6 -9 9 -20 6 -11 -3 -23 -1 -26 4 -3 5
0 9 5 9 6 0 21 10 33 22 l21 21 8 -21 c5 -13 18 -22 31 -23z m8 25 c0 -2 -7
-4 -15 -4 -8 0 -15 4 -15 10 0 5 7 7 15 4 8 -4 15 -8 15 -10z m1950 7 c0 -12
-20 -25 -27 -18 -7 7 6 27 18 27 5 0 9 -4 9 -9z m-3086 -28 c-18 -13 -16 -14
16 -13 54 3 60 1 60 -16 0 -11 -6 -15 -20 -11 -13 3 -18 1 -13 -6 4 -6 -2 -8
-18 -4 -13 4 -30 7 -36 7 -7 0 -13 8 -13 18 0 14 -2 15 -10 2 -12 -19 -21 -9
-14 17 5 16 13 21 36 21 29 -1 30 -2 12 -15z m106 7 c0 -5 -2 -10 -4 -10 -3 0
-8 5 -11 10 -3 6 -1 10 4 10 6 0 11 -4 11 -10z m30 -19 c0 -5 -7 -12 -16 -15
-14 -5 -15 -4 -4 9 14 17 20 19 20 6z"/>
<path d="M3980 6784 c0 -8 5 -12 10 -9 6 3 10 10 10 16 0 5 -4 9 -10 9 -5 0
-10 -7 -10 -16z"/>
<path d="M3960 6750 c0 -7 24 -20 36 -20 13 0 1 19 -16 23 -11 3 -20 2 -20 -3z"/>
<path d="M4770 6611 c0 -5 7 -15 17 -22 15 -13 15 -12 4 9 -12 23 -21 28 -21
13z"/>
<path d="M4187 6567 c-10 -26 4 -49 23 -37 9 6 10 10 3 10 -6 0 -13 10 -15 23
-3 20 -4 20 -11 4z"/>
<path d="M4255 6550 c-3 -5 -1 -10 4 -10 6 0 11 5 11 10 0 6 -2 10 -4 10 -3 0
-8 -4 -11 -10z"/>
<path d="M4280 6541 c0 -5 -11 -13 -24 -18 -17 -6 -21 -11 -13 -18 8 -7 19 -3
34 12 12 13 18 25 12 28 -5 4 -9 2 -9 -4z"/>
<path d="M4530 6529 c0 -5 5 -7 10 -4 6 3 10 8 10 11 0 2 -4 4 -10 4 -5 0 -10
-5 -10 -11z"/>
<path d="M3425 6399 c6 -32 13 -34 13 -4 0 14 -4 25 -9 25 -4 0 -6 -10 -4 -21z"/>
<path d="M3750 6360 c0 -14 5 -18 17 -13 11 4 13 8 5 11 -7 2 -10 8 -6 13 3 5
0 9 -5 9 -6 0 -11 -9 -11 -20z"/>
<path d="M3436 6337 c3 -10 9 -15 12 -12 3 3 0 11 -7 18 -10 9 -11 8 -5 -6z"/>
<path d="M3481 6268 c-1 -32 3 -58 8 -58 5 0 6 21 4 48 -7 70 -11 74 -12 10z"/>
<path d="M3750 6309 c0 -5 5 -7 10 -4 6 3 10 8 10 11 0 2 -4 4 -10 4 -5 0 -10
-5 -10 -11z"/>
<path d="M3707 6280 c-9 -11 -14 -20 -11 -20 13 0 44 21 44 30 0 16 -14 11
-33 -10z"/>
<path d="M3600 6124 c0 -8 5 -12 10 -9 6 3 10 10 10 16 0 5 -4 9 -10 9 -5 0
-10 -7 -10 -16z"/>
<path d="M5500 6589 c0 -5 5 -7 10 -4 6 3 10 8 10 11 0 2 -4 4 -10 4 -5 0 -10
-5 -10 -11z"/>
<path d="M5365 6210 c3 -5 12 -7 20 -3 21 7 19 13 -6 13 -11 0 -18 -4 -14 -10z"/>
<path d="M2410 5680 c0 -6 -6 -8 -12 -4 -10 6 -10 4 0 -7 9 -9 15 -10 23 -2 8
8 8 13 0 17 -6 4 -11 2 -11 -4z"/>
<path d="M2370 5506 c0 -8 4 -17 9 -20 5 -4 7 3 4 14 -6 23 -13 26 -13 6z"/>
<path d="M2430 5380 c0 -26 58 -155 66 -147 8 7 -24 105 -37 112 -5 4 -9 15
-9 25 0 10 -4 22 -10 25 -5 3 -10 -3 -10 -15z"/>
<path d="M2382 5378 c2 -5 8 -9 13 -9 5 0 11 4 13 9 1 5 -4 9 -13 9 -9 0 -14
-4 -13 -9z"/>
<path d="M2418 5315 c-5 -5 24 -101 33 -110 7 -6 -1 66 -8 85 -4 8 -5 18 -5
23 2 8 -12 10 -20 2z"/>
<path d="M2501 5294 c0 -11 3 -14 6 -6 3 7 2 16 -1 19 -3 4 -6 -2 -5 -13z"/>
<path d="M2360 5190 c0 -5 5 -10 11 -10 5 0 7 5 4 10 -3 6 -8 10 -11 10 -2 0
-4 -4 -4 -10z"/>
<path d="M2242 5141 c-10 -6 -8 -13 7 -32 11 -13 20 -19 21 -12 0 6 -5 15 -11
18 -6 4 -8 13 -5 21 6 16 5 17 -12 5z"/>
<path d="M2560 5105 c0 -8 4 -15 10 -15 5 0 7 7 4 15 -4 8 -8 15 -10 15 -2 0
-4 -7 -4 -15z"/>
<path d="M2051 5238 c1 -24 4 -33 6 -20 3 17 9 21 24 17 24 -8 25 7 1 28 -28
25 -32 21 -31 -25z"/>
<path d="M2335 4870 c3 -5 8 -10 11 -10 2 0 4 5 4 10 0 6 -5 10 -11 10 -5 0
-7 -4 -4 -10z"/>
<path d="M2360 4850 c0 -5 5 -10 10 -10 6 0 10 5 10 10 0 6 -4 10 -10 10 -5 0
-10 -4 -10 -10z"/>
<path d="M2380 4820 c0 -5 5 -10 11 -10 5 0 7 5 4 10 -3 6 -8 10 -11 10 -2 0
-4 -4 -4 -10z"/>
<path d="M5185 800 c3 -5 10 -10 16 -10 5 0 9 5 9 10 0 6 -7 10 -16 10 -8 0
-12 -4 -9 -10z"/>
<path d="M5790 770 c0 -5 7 -10 16 -10 8 0 12 5 9 10 -3 6 -10 10 -16 10 -5 0
-9 -4 -9 -10z"/>
<path d="M4690 760 c-11 -7 -6 -10 20 -10 26 0 31 3 20 10 -8 5 -17 10 -20 10
-3 0 -12 -5 -20 -10z"/>
<path d="M4100 7101 c0 -10 19 -25 25 -20 1 2 -3 10 -11 17 -8 7 -14 8 -14 3z"/>
<path d="M3410 7091 c0 -5 7 -11 14 -14 10 -4 13 -1 9 9 -6 15 -23 19 -23 5z"/>
<path d="M3821 7074 c0 -11 3 -14 6 -6 3 7 2 16 -1 19 -3 4 -6 -2 -5 -13z"/>
<path d="M4238 7083 c7 -3 16 -2 19 1 4 3 -2 6 -13 5 -11 0 -14 -3 -6 -6z"/>
<path d="M2920 7072 c0 -5 12 -14 27 -21 28 -13 28 -13 9 8 -20 22 -36 27 -36
13z"/>
<path d="M3460 7055 c0 -8 4 -15 10 -15 5 0 7 7 4 15 -4 8 -8 15 -10 15 -2 0
-4 -7 -4 -15z"/>
<path d="M3875 7060 c3 -5 8 -10 11 -10 2 0 4 5 4 10 0 6 -5 10 -11 10 -5 0
-7 -4 -4 -10z"/>
<path d="M3060 7051 c0 -5 5 -13 10 -16 6 -3 10 -2 10 4 0 5 -4 13 -10 16 -5
3 -10 2 -10 -4z"/>
<path d="M3420 7045 c0 -8 4 -15 10 -15 5 0 7 7 4 15 -4 8 -8 15 -10 15 -2 0
-4 -7 -4 -15z"/>
<path d="M3210 7025 c0 -8 6 -14 13 -12 6 1 11 -4 9 -11 -1 -8 2 -11 8 -7 8 5
6 13 -6 26 -21 23 -24 23 -24 4z"/>
<path d="M3810 7020 c0 -5 5 -10 11 -10 5 0 7 5 4 10 -3 6 -8 10 -11 10 -2 0
-4 -4 -4 -10z"/>
<path d="M3845 7019 c-4 -6 -5 -12 -2 -15 2 -3 7 2 10 11 7 17 1 20 -8 4z"/>
<path d="M3814 6976 c13 -11 17 -22 12 -39 -4 -18 -1 -27 10 -31 23 -9 23 -9
14 25 -5 17 -8 36 -7 42 1 7 -9 13 -23 15 -24 2 -24 2 -6 -12z"/>
<path d="M2894 6961 c4 -6 16 -16 28 -22 15 -8 18 -8 14 0 -4 6 -16 16 -28 22
-15 8 -18 8 -14 0z"/>
<path d="M3105 6950 c3 -5 8 -10 11 -10 2 0 4 5 4 10 0 6 -5 10 -11 10 -5 0
-7 -4 -4 -10z"/>
<path d="M3130 6949 c0 -5 6 -9 14 -9 8 0 18 -5 22 -12 4 -7 3 -8 -4 -4 -7 4
-12 2 -12 -4 0 -7 8 -9 20 -5 11 4 20 2 20 -4 0 -6 23 -34 50 -62 28 -28 50
-46 50 -39 0 6 -21 33 -46 59 -25 25 -52 54 -59 64 -13 19 -55 32 -55 16z"/>
<path d="M3250 6949 c0 -8 7 -24 15 -35 11 -15 14 -16 15 -3 0 8 -7 24 -15 35
-11 15 -14 16 -15 3z"/>
<path d="M3066 6929 c3 -6 0 -16 -7 -21 -10 -7 -8 -8 9 -5 24 6 28 -3 11 -20
-8 -8 -3 -13 20 -18 17 -3 34 -4 39 -1 5 3 14 -6 21 -21 6 -14 14 -23 17 -20
3 3 -2 20 -11 38 -12 23 -19 28 -25 19 -6 -9 -15 -3 -31 23 -13 20 -30 37 -37
37 -7 0 -10 -5 -6 -11z"/>
<path d="M4792 6912 c-10 -9 -17 -23 -15 -29 7 -21 20 -15 27 12 4 16 11 22
21 19 8 -4 15 -4 15 -1 0 14 -31 14 -48 -1z"/>
<path d="M4740 6896 c0 -9 -4 -14 -10 -11 -5 3 -10 1 -10 -4 0 -6 -9 -11 -21
-11 -11 0 -17 -4 -14 -10 3 -5 2 -10 -3 -10 -5 0 -8 -10 -6 -22 1 -13 3 -27 3
-31 1 -12 26 -3 26 10 0 14 34 45 43 39 10 -6 9 51 -1 60 -4 4 -7 0 -7 -10z"/>
<path d="M3310 6811 c0 -6 4 -13 10 -16 6 -3 7 1 4 9 -7 18 -14 21 -14 7z"/>
<path d="M3466 6795 c4 -8 11 -15 16 -15 6 0 5 6 -2 15 -7 8 -14 15 -16 15 -2
0 -1 -7 2 -15z"/>
<path d="M3090 6776 c0 -2 7 -9 15 -16 9 -7 15 -8 15 -2 0 5 -7 12 -15 16 -8
3 -15 4 -15 2z"/>
<path d="M3558 6763 c7 -3 16 -2 19 1 4 3 -2 6 -13 5 -11 0 -14 -3 -6 -6z"/>
<path d="M5810 6514 c0 -8 5 -12 10 -9 6 3 10 10 10 16 0 5 -4 9 -10 9 -5 0
-10 -7 -10 -16z"/>
<path d="M5704 6501 c3 -5 15 -7 26 -4 28 7 25 13 -6 13 -14 0 -23 -4 -20 -9z"/>
<path d="M5775 6500 c3 -5 11 -10 16 -10 6 0 7 5 4 10 -3 6 -11 10 -16 10 -6
0 -7 -4 -4 -10z"/>
<path d="M5499 6492 c11 -8 11 -10 0 -15 -10 -4 -8 -6 4 -6 21 -1 18 21 -4 27
-12 3 -12 2 0 -6z"/>
<path d="M6125 6480 c-3 -5 -2 -10 4 -10 5 0 13 5 16 10 3 6 2 10 -4 10 -5 0
-13 -4 -16 -10z"/>
<path d="M2735 6450 c3 -5 1 -10 -5 -10 -6 0 -8 -5 -4 -11 4 -8 9 -7 15 2 12
19 11 29 -2 29 -5 0 -7 -4 -4 -10z"/>
<path d="M6240 6449 c-13 -7 -12 -9 3 -10 29 -2 35 -4 41 -10 3 -3 20 -4 36
-1 23 3 28 7 20 17 -12 15 -79 18 -100 4z"/>
<path d="M3001 6434 c-9 -7 -12 -16 -8 -20 4 -5 12 -3 16 4 4 7 18 14 29 15
12 1 22 5 22 9 0 11 -40 5 -59 -8z"/>
<path d="M6275 6400 c4 -6 11 -8 16 -5 14 9 11 15 -7 15 -8 0 -12 -5 -9 -10z"/>
<path d="M6375 6400 c-3 -5 1 -10 10 -10 9 0 13 5 10 10 -3 6 -8 10 -10 10 -2
0 -7 -4 -10 -10z"/>
<path d="M2920 6370 c0 -5 5 -10 10 -10 6 0 10 5 10 10 0 6 -4 10 -10 10 -5 0
-10 -4 -10 -10z"/>
<path d="M6346 6361 c-18 -7 -18 -8 -2 -14 10 -4 22 -5 26 -2 5 3 11 1 15 -5
3 -5 13 -10 22 -10 12 0 13 3 4 13 -6 8 -8 17 -4 20 9 9 -37 7 -61 -2z"/>
<path d="M6250 6350 c-12 -8 -11 -10 8 -10 12 0 22 5 22 10 0 13 -11 13 -30 0z"/>
<path d="M2810 6326 c0 -8 5 -18 10 -21 6 -3 10 1 10 9 0 8 -4 18 -10 21 -5 3
-10 -1 -10 -9z"/>
<path d="M6415 6321 c-11 -5 -23 -7 -27 -4 -4 2 -5 -3 -2 -11 3 -8 19 -18 35
-21 16 -4 31 -11 34 -16 10 -16 25 -10 22 10 -2 16 -30 52 -39 50 -2 0 -12 -4
-23 -8z"/>
<path d="M2998 6269 c3 -19 7 -26 12 -19 8 14 2 50 -9 50 -4 0 -5 -14 -3 -31z"/>
<path d="M6086 6292 c-3 -4 4 -9 15 -9 23 -2 25 3 4 10 -8 4 -16 3 -19 -1z"/>
<path d="M5625 6260 c-3 -5 -1 -10 4 -10 6 0 11 5 11 10 0 6 -2 10 -4 10 -3 0
-8 -4 -11 -10z"/>
<path d="M3020 6246 c0 -2 7 -6 15 -10 8 -3 15 -1 15 4 0 6 -7 10 -15 10 -8 0
-15 -2 -15 -4z"/>
<path d="M6470 6246 c0 -2 7 -9 15 -16 12 -10 15 -10 15 4 0 9 -7 16 -15 16
-8 0 -15 -2 -15 -4z"/>
<path d="M6510 6222 c0 -6 7 -15 16 -20 9 -5 14 -12 12 -15 -1 -3 19 -20 45
-37 33 -21 45 -25 38 -13 -19 32 -49 63 -62 63 -7 0 -21 7 -31 17 -10 9 -18
11 -18 5z"/>
<path d="M2714 6192 c3 -6 2 -13 -4 -17 -5 -3 -10 -13 -10 -22 0 -13 3 -13 15
-3 18 15 19 36 3 46 -6 4 -8 3 -4 -4z"/>
<path d="M5817 6183 c3 -7 6 -13 8 -13 1 0 7 6 13 13 8 10 6 13 -7 13 -11 0
-17 -6 -14 -13z"/>
<path d="M5757 6184 c-3 -4 1 -13 9 -21 15 -16 44 -11 44 7 0 14 -17 13 -23
-2 -3 -8 -6 -6 -6 5 -1 17 -12 22 -24 11z"/>
<path d="M2986 6145 c4 -8 8 -15 10 -15 2 0 4 7 4 15 0 8 -4 15 -10 15 -5 0
-7 -7 -4 -15z"/>
<path d="M5726 6147 c3 -10 9 -15 12 -12 3 3 0 11 -7 18 -10 9 -11 8 -5 -6z"/>
<path d="M2710 6100 c0 -13 18 -22 24 -11 3 5 -1 11 -9 15 -8 3 -15 1 -15 -4z"/>
<path d="M3098 6078 c5 -32 4 -33 -15 -15 -43 38 -42 14 3 -43 60 -77 84 -98
61 -54 -9 17 -23 36 -31 43 -11 10 -14 24 -9 57 3 26 2 44 -4 44 -5 0 -7 -15
-5 -32z"/>
<path d="M6294 6072 c2 -4 -15 -7 -38 -7 l-42 0 15 -27 c16 -27 35 -29 25 -3
-4 10 3 13 25 13 17 -1 34 2 37 5 8 8 -4 27 -17 27 -6 0 -8 -3 -5 -8z"/>
<path d="M6624 6010 c0 -21 11 -26 21 -10 3 5 13 6 23 3 12 -4 14 -3 7 4 -5 6
-19 14 -30 17 -16 5 -21 1 -21 -14z"/>
<path d="M3050 5981 c0 -10 9 -21 20 -24 11 -3 20 -13 20 -22 0 -9 7 -29 15
-45 16 -32 3 -42 -14 -12 -6 9 -11 13 -11 9 0 -11 53 -77 63 -77 4 0 0 11 -8
24 -9 14 -12 27 -7 30 6 3 2 22 -9 43 -10 21 -19 43 -19 49 0 6 -11 19 -25 28
-24 16 -25 15 -25 -3z"/>
<path d="M6820 5921 c0 -5 5 -13 10 -16 6 -3 10 -2 10 4 0 5 -4 13 -10 16 -5
3 -10 2 -10 -4z"/>
<path d="M3157 5914 c-6 -10 9 -42 16 -34 3 3 1 14 -3 24 -3 11 -9 15 -13 10z"/>
<path d="M2975 5840 c3 -5 8 -10 11 -10 2 0 4 5 4 10 0 6 -5 10 -11 10 -5 0
-7 -4 -4 -10z"/>
<path d="M6910 5780 c0 -5 5 -10 11 -10 5 0 7 5 4 10 -3 6 -8 10 -11 10 -2 0
-4 -4 -4 -10z"/>
<path d="M445 3550 c-27 -7 -27 -8 -5 -8 14 0 36 4 50 8 20 6 21 8 5 8 -11 0
-33 -4 -50 -8z"/>
<path d="M358 3533 c12 -2 30 -2 40 0 9 3 -1 5 -23 4 -22 0 -30 -2 -17 -4z"/>
<path d="M2574 1709 c-3 -6 1 -17 10 -25 9 -8 12 -9 7 -3 -5 6 -7 18 -4 25 6
17 -3 19 -13 3z"/>
<path d="M6025 1330 c3 -5 8 -10 11 -10 2 0 4 5 4 10 0 6 -5 10 -11 10 -5 0
-7 -4 -4 -10z"/>
<path d="M1880 1190 c0 -13 11 -13 30 0 12 8 11 10 -7 10 -13 0 -23 -4 -23
-10z"/>
<path d="M2248 1108 c14 -15 25 -19 32 -12 6 6 -1 14 -22 22 l-32 12 22 -22z"/>
<path d="M2500 1092 c0 -4 9 -13 20 -20 11 -7 20 -9 20 -4 0 4 -9 13 -20 20
-11 7 -20 9 -20 4z"/>
<path d="M2447 1079 c7 -7 15 -10 18 -7 3 3 -2 9 -12 12 -14 6 -15 5 -6 -5z"/>
<path d="M2107 1073 c-4 -3 -7 -11 -7 -17 0 -6 5 -5 12 2 6 6 9 14 7 17 -3 3
-9 2 -12 -2z"/>
<path d="M2480 1060 c0 -5 4 -10 9 -10 6 0 13 5 16 10 3 6 -1 10 -9 10 -9 0
-16 -4 -16 -10z"/>
<path d="M2184 1035 c-9 -37 10 -56 41 -41 31 14 31 16 -5 44 l-29 23 -7 -26z"/>
<path d="M5870 1040 c0 -6 3 -10 8 -10 4 0 39 -23 77 -51 38 -28 71 -45 73
-39 6 16 -16 38 -57 57 -20 9 -38 20 -41 24 -10 14 -60 29 -60 19z"/>
<path d="M4635 970 c-4 -6 3 -10 14 -10 25 0 27 6 6 13 -8 4 -17 2 -20 -3z"/>
<path d="M5740 930 c8 -5 22 -10 30 -10 13 0 13 1 0 10 -8 5 -22 10 -30 10
-13 0 -13 -1 0 -10z"/>
<path d="M2313 795 c9 -12 17 -30 17 -41 0 -21 -20 -57 -20 -36 0 6 -9 12 -21
12 -12 0 -18 -4 -13 -11 3 -6 0 -15 -7 -20 -36 -22 269 9 313 32 34 18 18 28
-24 14 -24 -8 -79 -19 -123 -24 -81 -10 -100 -4 -88 25 2 6 -8 25 -24 41 -15
16 -20 19 -10 8z"/>
</g>
</svg>
