<?xml version="1.0" standalone="no"?>
<!DOCTYPE svg PUBLIC "-//W3C//DTD SVG 20010904//EN"
 "http://www.w3.org/TR/2001/REC-SVG-20010904/DTD/svg10.dtd">
<svg version="1.0" xmlns="http://www.w3.org/2000/svg"
 width="382.000000pt" height="198.000000pt" viewBox="0 0 382.000000 198.000000"
 preserveAspectRatio="xMidYMid meet">

<g transform="translate(0.000000,198.000000) scale(0.100000,-0.100000)"
fill="#000000" stroke="none">
<path d="M1378 943 c-8 -10 -18 -26 -21 -36 -7 -20 9 -68 26 -79 19 -12 77 -9
77 3 0 7 -9 9 -21 6 -45 -12 -77 30 -59 78 8 20 16 25 45 25 22 0 34 4 30 10
-10 16 -61 11 -77 -7z"/>
<path d="M1480 890 c0 -40 4 -70 10 -70 6 0 10 14 10 30 0 28 3 30 35 30 32 0
35 -2 35 -30 0 -16 5 -30 10 -30 6 0 10 30 10 70 0 40 -4 70 -10 70 -5 0 -10
-13 -10 -30 0 -28 -3 -30 -35 -30 -32 0 -35 2 -35 30 0 17 -4 30 -10 30 -6 0
-10 -30 -10 -70z"/>
<path d="M1642 908 c-11 -29 -23 -61 -27 -70 -4 -10 -3 -18 3 -18 6 0 14 9 17
20 9 28 58 27 78 -2 8 -13 17 -21 20 -18 8 8 -46 133 -59 137 -6 2 -20 -20
-32 -49z m36 -36 c-27 -5 -30 1 -17 34 l11 29 13 -30 c12 -27 12 -30 -7 -33z"/>
<path d="M1760 913 c0 -27 -3 -58 -6 -70 -4 -14 -2 -23 5 -23 6 0 11 12 12 28
0 15 4 35 8 45 6 15 9 13 24 -17 9 -20 21 -36 26 -36 5 0 17 19 27 43 l19 42
3 -52 c3 -57 22 -74 22 -20 0 45 -11 107 -19 107 -4 0 -17 -21 -30 -47 l-23
-48 -24 48 c-14 26 -29 47 -34 47 -6 0 -10 -21 -10 -47z"/>
<path d="M1930 889 l0 -70 41 3 c50 4 71 27 52 58 -8 12 -9 21 -3 25 28 17
-10 55 -56 55 l-34 0 0 -71z m75 31 c0 -9 -11 -16 -27 -18 -23 -3 -28 1 -28
18 0 17 5 21 28 18 16 -2 27 -9 27 -18z m5 -59 c0 -12 -9 -20 -25 -23 -29 -6
-35 -2 -35 24 0 13 8 18 30 18 23 0 30 -5 30 -19z"/>
<path d="M2060 890 l0 -70 45 0 c25 0 45 5 45 10 0 6 -16 10 -35 10 -28 0 -35
4 -35 20 0 15 7 20 24 20 14 0 28 5 31 10 4 6 -7 10 -24 10 -24 0 -31 4 -31
20 0 16 7 20 30 20 17 0 30 5 30 10 0 6 -18 10 -40 10 l-40 0 0 -70z"/>
<path d="M2177 953 c-11 -10 -8 -133 3 -133 6 0 10 11 10 25 0 18 5 25 19 25
10 0 26 -11 35 -25 9 -14 21 -25 27 -25 7 0 5 10 -4 24 -13 20 -14 29 -4 56
11 28 10 33 -7 46 -21 15 -68 19 -79 7z m68 -38 c0 -14 -8 -21 -27 -23 -24 -3
-28 0 -28 23 0 23 4 26 28 23 19 -2 27 -9 27 -23z"/>
<path d="M2365 946 c-27 -20 -27 -92 0 -112 48 -35 105 -4 105 58 0 59 -58 89
-105 54z m81 -31 c14 -56 -17 -96 -57 -75 -46 25 -30 100 21 100 23 0 31 -5
36 -25z"/>
<path d="M2500 890 c0 -40 4 -70 10 -70 6 0 10 14 10 30 0 27 3 30 30 30 17 0
30 5 30 10 0 6 -13 10 -30 10 -23 0 -30 4 -30 20 0 16 7 20 30 20 17 0 30 5
30 10 0 6 -18 10 -40 10 l-40 0 0 -70z"/>
<path d="M2670 940 c-43 -43 -14 -120 46 -120 19 0 34 5 34 11 0 6 -7 8 -16 5
-27 -10 -64 20 -64 52 0 36 17 52 52 52 15 0 28 5 28 10 0 18 -59 11 -80 -10z"/>
<path d="M2798 943 c-24 -28 -28 -50 -17 -83 18 -51 95 -54 117 -5 17 36 15
48 -9 79 -24 31 -68 35 -91 9z m82 -28 c11 -29 -1 -69 -24 -78 -40 -15 -73 32
-56 78 7 19 17 25 40 25 23 0 33 -6 40 -25z"/>
<path d="M2940 943 c0 -10 -3 -42 -6 -70 -5 -36 -3 -53 4 -53 6 0 12 23 14 53
l4 52 19 -42 c11 -24 23 -43 28 -43 4 0 15 16 24 35 23 47 33 44 33 -10 0 -27
5 -45 11 -45 8 0 10 15 5 46 -3 26 -6 57 -6 70 0 38 -18 28 -43 -23 l-24 -47
-21 47 c-21 47 -42 62 -42 30z"/>
<path d="M3117 953 c-11 -11 -8 -135 3 -128 6 3 10 27 11 53 l0 47 22 -42 c11
-24 24 -43 27 -43 3 0 16 19 27 43 l22 42 0 -52 c1 -29 6 -53 11 -53 11 0 14
98 4 124 -10 26 -21 18 -41 -29 -10 -25 -21 -45 -25 -45 -3 0 -12 15 -18 34
-12 37 -33 60 -43 49z"/>
<path d="M3280 890 l0 -70 45 0 c25 0 45 5 45 10 0 6 -16 10 -35 10 -28 0 -35
4 -35 20 0 16 7 20 30 20 17 0 30 5 30 10 0 6 -13 10 -30 10 -23 0 -30 4 -30
20 0 16 7 20 35 20 19 0 35 5 35 10 0 6 -20 10 -45 10 l-45 0 0 -70z"/>
<path d="M3400 890 c0 -40 4 -70 10 -70 6 0 10 11 10 25 0 15 6 25 15 25 8 0
22 -11 31 -25 9 -14 21 -25 26 -25 6 0 3 12 -7 26 -12 19 -14 29 -6 37 15 15
14 50 -1 65 -7 7 -27 12 -45 12 l-33 0 0 -70z m65 25 c0 -13 -8 -21 -22 -23
-19 -3 -23 1 -23 23 0 22 4 26 23 23 14 -2 22 -10 22 -23z"/>
<path d="M3537 942 c-23 -25 -22 -85 1 -105 20 -18 82 -23 82 -7 0 6 -10 8
-24 4 -30 -7 -56 18 -56 55 0 35 17 51 52 51 15 0 28 5 28 10 0 18 -66 11 -83
-8z"/>
<path d="M3650 890 l0 -70 46 0 c27 0 43 4 39 10 -3 6 -19 10 -36 10 -22 0
-29 5 -29 20 0 15 7 20 25 20 14 0 25 5 25 10 0 6 -11 10 -25 10 -18 0 -25 5
-25 20 0 16 7 20 30 20 17 0 30 5 30 10 0 6 -18 10 -40 10 l-40 0 0 -70z"/>
<path d="M1464 486 c1 -43 5 -61 16 -64 12 -4 13 -2 3 9 -6 8 -14 37 -16 64
-4 45 -4 44 -3 -9z"/>
<path d="M1535 530 c-3 -5 -1 -10 4 -10 6 0 11 5 11 10 0 6 -2 10 -4 10 -3 0
-8 -4 -11 -10z"/>
<path d="M1715 530 c-3 -5 -2 -10 4 -10 5 0 13 5 16 10 3 6 2 10 -4 10 -5 0
-13 -4 -16 -10z"/>
<path d="M1370 488 c-23 -51 -27 -83 -6 -55 16 21 52 22 60 2 3 -8 10 -15 15
-15 5 0 -1 25 -12 55 -12 30 -26 55 -30 55 -4 0 -17 -19 -27 -42z m40 -15 c0
-7 -7 -13 -15 -13 -16 0 -19 9 -9 35 5 13 8 14 15 3 5 -7 9 -19 9 -25z"/>
<path d="M1504 476 c-8 -33 11 -56 45 -55 l26 1 -24 7 c-35 9 -39 31 -6 31 37
0 30 34 -7 38 -22 3 -29 -2 -34 -22z m51 4 c3 -5 -3 -10 -14 -10 -12 0 -21 5
-21 10 0 6 6 10 14 10 8 0 18 -4 21 -10z"/>
<path d="M1601 443 c1 -32 3 -50 6 -41 2 9 14 18 25 20 52 8 47 70 -6 76 -26
3 -26 2 -25 -55z m44 17 c0 -16 -6 -26 -17 -28 -14 -3 -18 3 -18 28 0 25 4 31
18 28 11 -2 17 -12 17 -28z"/>
<path d="M1690 485 c-21 -25 3 -65 37 -64 27 1 28 1 4 8 -37 10 -38 31 -3 31
25 0 29 3 25 20 -6 24 -45 27 -63 5z m50 -5 c0 -5 -9 -10 -21 -10 -11 0 -17 5
-14 10 3 6 13 10 21 10 8 0 14 -4 14 -10z"/>
</g>
</svg>
